<svg width="18" height="16" viewBox="0 0 18 16" fill="none" xmlns="http://www.w3.org/2000/svg">
<path fill-rule="evenodd" clip-rule="evenodd" d="M0.600098 2.00029C0.600098 1.33755 1.13736 0.800293 1.8001 0.800293H16.2001C16.8628 0.800293 17.4001 1.33755 17.4001 2.00029C17.4001 2.66303 16.8628 3.20029 16.2001 3.20029H1.8001C1.13736 3.20029 0.600098 2.66303 0.600098 2.00029Z" fill="#111827"/>
<path fill-rule="evenodd" clip-rule="evenodd" d="M0.600098 8.00029C0.600098 7.33755 1.13736 6.80029 1.8001 6.80029H16.2001C16.8628 6.80029 17.4001 7.33755 17.4001 8.00029C17.4001 8.66303 16.8628 9.20029 16.2001 9.20029H1.8001C1.13736 9.20029 0.600098 8.66303 0.600098 8.00029Z" fill="#111827"/>
<path fill-rule="evenodd" clip-rule="evenodd" d="M0.600098 14.0003C0.600098 13.3376 1.13736 12.8003 1.8001 12.8003H9.0001C9.66284 12.8003 10.2001 13.3376 10.2001 14.0003C10.2001 14.663 9.66284 15.2003 9.0001 15.2003H1.8001C1.13736 15.2003 0.600098 14.663 0.600098 14.0003Z" fill="#111827"/>
</svg>
