<svg width="194" height="179" viewBox="0 0 194 179" fill="none" xmlns="http://www.w3.org/2000/svg">
<path d="M84.7895 144.734H3.84409C1.72331 144.731 0.00277953 143.018 0 140.901V31.3356C0.00277953 29.221 1.72331 27.5056 3.84409 27.5028H84.7895C86.9103 27.5056 88.6308 29.221 88.6336 31.3356V140.901C88.6308 143.018 86.9131 144.731 84.7895 144.734Z" fill="white"/>
<path d="M40.6674 56.0199C40.6674 62.5104 36.4787 68.2665 30.2887 70.2758C30.1997 70.3035 30.108 70.334 30.0163 70.3589C29.6244 70.4781 29.2297 70.5806 28.8266 70.6693C28.0956 70.8273 27.3563 70.9298 26.6114 70.9769C26.2862 70.9991 25.961 71.0102 25.633 71.0102C23.9402 71.013 22.2586 70.7275 20.6632 70.1705C20.6159 70.1538 20.5714 70.1372 20.5242 70.1206C12.7137 67.3077 8.66951 58.7165 11.4907 50.9289C14.3119 43.1414 22.9285 39.1091 30.739 41.922C36.6983 44.0643 40.6674 49.704 40.6674 56.0199Z" fill="white"/>
<path d="M25.2742 65.95C29.3146 65.95 32.5899 62.6842 32.5899 58.6558C32.5899 54.6273 29.3146 51.3616 25.2742 51.3616C21.2339 51.3616 17.9585 54.6273 17.9585 58.6558C17.9585 62.6842 21.2339 65.95 25.2742 65.95Z" fill="#FDBC01"/>
<path d="M25.6995 62.5855L25.7078 62.3139C25.1991 62.3001 24.7516 62.2668 24.4153 62.023C24.2207 61.8733 24.104 61.6488 24.0901 61.4049C24.079 61.2553 24.1374 61.1112 24.2485 61.0114C24.507 60.8534 24.8322 60.8507 25.0935 61.0031L25.3187 61.1056L24.8851 57.9463L24.6154 57.9823L24.9851 60.6705C24.6794 60.5569 24.3347 60.6068 24.0734 60.8008C23.8983 60.9532 23.8038 61.1805 23.8205 61.4133C23.8372 61.7403 23.9956 62.0424 24.2569 62.2419C24.6849 62.5578 25.2492 62.5745 25.6995 62.5855Z" fill="#262626"/>
<path d="M23.2756 58.2152H21.8025V58.4868H23.2756V58.2152Z" fill="#262626"/>
<path d="M27.9231 58.2152H26.45V58.4868H27.9231V58.2152Z" fill="#262626"/>
<path d="M27.3506 68.8544C27.3701 68.7657 27.3812 68.6743 27.3812 68.5828C27.3812 67.8678 26.8003 67.2886 26.0831 67.2886H24.1708C23.4537 67.2886 22.8728 67.8678 22.8728 68.5828C22.8728 68.6743 22.8839 68.7657 22.9034 68.8572C22.1807 69.0844 21.4969 69.4198 20.8799 69.8549C20.7603 69.938 20.6408 70.0267 20.5269 70.1209C20.5713 70.1375 20.6186 70.1542 20.6658 70.1708C22.2641 70.7278 23.9429 71.0133 25.6356 71.0105C25.9636 71.0105 26.2888 70.9994 26.614 70.9773C27.3589 70.9301 28.1011 70.8276 28.8293 70.6696C29.2323 70.5837 29.6298 70.4812 30.0189 70.3592C29.2435 69.6775 28.3346 69.1648 27.3506 68.8544Z" fill="#262626"/>
<path d="M27.1058 70.8025C26.928 70.8164 26.7584 70.8746 26.6111 70.9743C27.356 70.9272 28.0981 70.8247 28.8264 70.6667L27.1058 70.8025Z" fill="#262626"/>
<path d="M31.9089 56.9237L19.2008 52.29C18.9173 52.1874 18.7728 51.8743 18.8756 51.5916L18.9173 51.3893C19.9096 48.6844 23.1978 46.9828 25.9106 47.9722L29.8214 49.3994C32.5342 50.3888 33.7128 53.5925 32.7205 56.2973L32.6065 56.605C32.5037 56.8821 32.1924 57.029 31.9089 56.9237Z" fill="#262626"/>
<path d="M32.5927 57.1813C14.8816 57.8326 13.3334 55.6128 18.7312 52.1236L19.8764 50.0229L32.9985 54.7924L32.5927 57.1813Z" fill="#262626"/>
<path d="M29.1227 49.0647C29.2204 48.7408 28.8014 48.3288 28.1869 48.1446C27.5723 47.9604 26.995 48.0737 26.8973 48.3977C26.7996 48.7216 27.2186 49.1336 27.8332 49.3178C28.4477 49.502 29.025 49.3887 29.1227 49.0647Z" fill="#262626"/>
<path d="M25.6327 71.4177C23.8927 71.4205 22.1667 71.1267 20.5267 70.5558L20.385 70.506C12.3633 67.6154 8.21064 58.7887 11.1097 50.7905C14.0087 42.7924 22.8615 38.652 30.8833 41.5425C38.905 44.433 43.0576 53.2598 40.1585 61.2579C38.5409 65.7254 34.9441 69.1951 30.4163 70.6667C30.319 70.6972 30.2273 70.7277 30.1356 70.7554C29.7464 70.8746 29.3351 70.9826 28.9153 71.0713C28.1649 71.2348 27.4033 71.3401 26.6389 71.3873C26.3081 71.4067 25.969 71.4177 25.6327 71.4177ZM25.6327 41.4372C17.5554 41.4372 11.0068 47.9693 11.0096 56.0229C11.0096 62.1642 14.8704 67.6487 20.6629 69.7355L20.7991 69.7826C22.3529 70.3258 23.9872 70.6002 25.6327 70.5974C25.9496 70.5974 26.2692 70.5863 26.5833 70.5669C27.3088 70.5226 28.0287 70.4228 28.7402 70.2676C29.1377 70.1817 29.5268 70.0792 29.8965 69.9683C29.9882 69.9406 30.0744 69.9129 30.1606 69.8852C37.8404 67.391 42.0403 59.16 39.5387 51.5028C37.5791 45.5 31.9645 41.4372 25.6327 41.4372Z" fill="#CCCCCC"/>
<path d="M84.7895 144.734H3.84409C1.72331 144.731 0.00277953 143.018 0 140.901V31.3356C0.00277953 29.221 1.72331 27.5056 3.84409 27.5028H84.7895C86.9103 27.5056 88.6308 29.221 88.6336 31.3356V140.901C88.6308 143.018 86.9131 144.731 84.7895 144.734ZM3.84409 27.9545C1.97069 27.9573 0.455843 29.4705 0.453063 31.3356V140.901C0.455843 142.769 1.97347 144.279 3.84409 144.282H84.7895C86.6629 144.279 88.1778 142.766 88.1805 140.901V31.3356C88.1778 29.4677 86.6601 27.9573 84.7895 27.9545H3.84409Z" fill="#CCCCCC"/>
<path d="M69.1212 55.9593H46.2151C45.2145 55.9593 44.4028 55.1501 44.4028 54.1524C44.4028 53.1547 45.2145 52.3455 46.2151 52.3455H69.1212C70.1218 52.3455 70.9334 53.1547 70.9334 54.1524C70.9334 55.1528 70.1218 55.9593 69.1212 55.9593Z" fill="#E6E6E6"/>
<path d="M76.5954 62.0593H46.2151C45.2145 62.0593 44.4028 61.25 44.4028 60.2524C44.4028 59.2547 45.2145 58.4454 46.2151 58.4454H76.5954C77.596 58.4454 78.4076 59.2547 78.4076 60.2524C78.4076 61.25 77.596 62.0593 76.5954 62.0593Z" fill="#E6E6E6"/>
<path d="M69.0879 85.4462H12.0381C11.0375 85.4462 10.2258 84.637 10.2258 83.6393C10.2258 82.6416 11.0375 81.8324 12.0381 81.8324H69.0851C70.0858 81.8324 70.8974 82.6416 70.8974 83.6393C70.9002 84.637 70.0885 85.4462 69.0879 85.4462Z" fill="#E6E6E6"/>
<path d="M76.5621 91.5433H12.0381C11.0375 91.5433 10.2258 90.7341 10.2258 89.7364C10.2258 88.7387 11.0375 87.9294 12.0381 87.9294H76.5593C77.5599 87.9294 78.3715 88.7387 78.3715 89.7364C78.3743 90.7341 77.5627 91.5433 76.5621 91.5433Z" fill="#E6E6E6"/>
<path d="M69.088 105.558H12.0382C11.0375 105.558 10.2259 104.752 10.2231 103.754C10.2231 102.757 11.032 101.947 12.0326 101.945H12.0354H69.0824C70.0831 101.945 70.8947 102.754 70.8919 103.754C70.8975 104.749 70.0859 105.558 69.088 105.558Z" fill="#E6E6E6"/>
<path d="M76.5622 111.655H12.0382C11.0375 111.655 10.2259 110.849 10.2231 109.851C10.2231 108.854 11.032 108.044 12.0326 108.042H12.0354H76.5566C77.5572 108.042 78.3689 108.848 78.3716 109.846C78.3716 110.843 77.5628 111.653 76.5622 111.655C76.5649 111.655 76.5622 111.655 76.5622 111.655Z" fill="#E6E6E6"/>
<path d="M69.088 125.67H12.0382C11.0375 125.67 10.2259 124.864 10.2231 123.866C10.2231 122.868 11.032 122.059 12.0326 122.056H12.0354H69.0824C70.0831 122.056 70.8947 122.865 70.8919 123.866C70.8975 124.861 70.0859 125.67 69.088 125.67Z" fill="#E6E6E6"/>
<path d="M76.5622 131.767H12.0382C11.0375 131.767 10.2259 130.961 10.2231 129.963C10.2231 128.965 11.032 128.156 12.0326 128.153H12.0354H76.5566C77.5572 128.153 78.3689 128.96 78.3716 129.957C78.3716 130.955 77.5628 131.764 76.5622 131.767C76.5649 131.767 76.5622 131.767 76.5622 131.767Z" fill="#E6E6E6"/>
<path d="M190.156 117.231H109.211C107.09 117.228 105.369 115.513 105.366 113.398V3.83278C105.369 1.71824 107.09 0.00277135 109.211 0H190.156C192.277 0.00277135 193.997 1.71824 194 3.83278V113.398C193.997 115.513 192.28 117.228 190.156 117.231Z" fill="white"/>
<path d="M190.156 117.231H109.211C107.09 117.228 105.369 115.513 105.366 113.398V3.83278C105.369 1.71824 107.09 0.00277135 109.211 0H190.156C192.277 0.00277135 193.997 1.71824 194 3.83278V113.398C193.997 115.513 192.28 117.228 190.156 117.231ZM109.211 0.451731C107.337 0.454502 105.822 1.96766 105.82 3.83278V113.398C105.822 115.266 107.34 116.777 109.211 116.779H190.156C192.029 116.777 193.544 115.263 193.547 113.398V3.83278C193.544 1.96489 192.027 0.454502 190.156 0.451731H109.211Z" fill="#CCCCCC"/>
<path d="M146.073 28.3649C146.073 36.6429 139.341 43.3552 131.038 43.3552C122.736 43.3552 116.004 36.6429 116.004 28.3649C116.004 20.0869 122.736 13.3746 131.038 13.3746C139.341 13.3774 146.07 20.0869 146.073 28.3649Z" fill="white"/>
<path d="M137.987 30.9311C137.823 40.5172 123.519 40.5172 123.358 30.9311C123.522 21.3422 137.823 21.345 137.987 30.9311Z" fill="#FDBC01"/>
<path d="M130.382 33.9045L130.374 33.633C132.258 33.8851 132.664 31.5544 130.763 32.4274L131.197 29.2681L131.466 29.3041L131.096 31.9923C133.1 31.6958 132.361 34.1789 130.382 33.9045Z" fill="#262626"/>
<path d="M134.282 29.5342H132.809V29.8058H134.282V29.5342Z" fill="#262626"/>
<path d="M129.634 29.5342H128.161V29.8058H129.634V29.5342Z" fill="#262626"/>
<path d="M133.042 41.1268C133.329 39.1952 131.063 39.5777 129.863 39.5583C129.145 39.561 128.564 40.143 128.564 40.858C128.564 40.9467 128.576 41.0354 128.592 41.1241C127.664 41.4095 126.802 41.8834 126.066 42.5153C129.176 43.5961 132.559 43.6349 135.691 42.6206C134.93 41.9389 134.026 41.4289 133.042 41.1268Z" fill="#262626"/>
<path d="M127.233 27.4807C128.589 26.6992 130.232 27.2978 131.633 27.6276C134.29 28.4423 138.015 27.4225 138.337 24.2659C138.674 21.331 134.646 19.6959 133.359 22.617L133.734 22.5671C129.559 16.3814 122.299 16.617 122.349 25.1195C122.333 25.3828 122.744 25.38 122.758 25.1195C122.605 20.1089 125.929 16.6835 130.632 19.9038C131.683 20.7241 132.609 21.6886 133.381 22.7722C133.871 23.3181 133.976 20.9625 136.319 21.5805C138.899 22.5754 138.056 26.2585 135.752 27.0678C132.903 28.5199 129.821 25.707 127.025 27.126C126.93 27.1869 126.899 27.3116 126.961 27.4086C127.019 27.5001 127.139 27.5306 127.233 27.4807Z" fill="#262626"/>
<path d="M131.038 43.7655C122.516 43.7572 115.612 36.8648 115.62 28.3678C115.628 19.8709 122.541 12.9868 131.063 12.9951C139.585 13.0034 146.49 19.8958 146.481 28.3928C146.476 35.0523 142.173 40.9553 135.819 43.0117C134.276 43.5133 132.661 43.7655 131.038 43.7655ZM131.038 13.785C122.961 13.785 116.41 20.3115 116.41 28.3651C116.41 36.4186 122.955 42.9507 131.033 42.9507C139.11 42.9507 145.661 36.4242 145.661 28.3706V28.3678C145.653 20.317 139.11 13.7933 131.038 13.785Z" fill="#CCCCCC"/>
<path d="M174.488 28.4563H151.582C150.581 28.4563 149.769 27.647 149.769 26.6493C149.769 25.6516 150.581 24.8424 151.582 24.8424H174.488C175.488 24.8424 176.3 25.6489 176.303 26.6466C176.303 27.6443 175.494 28.4535 174.493 28.4563C174.488 28.4563 174.488 28.4563 174.488 28.4563Z" fill="#E6E6E6"/>
<path d="M181.962 34.5534H151.582C150.581 34.5534 149.769 33.747 149.767 32.7493C149.767 31.7516 150.575 30.9423 151.576 30.9396C151.579 30.9396 151.579 30.9396 151.582 30.9396H181.962C182.962 30.9396 183.774 31.7488 183.774 32.7465C183.774 33.7442 182.962 34.5534 181.962 34.5534Z" fill="#E6E6E6"/>
<path d="M174.455 57.9405H117.407C116.407 57.9405 115.595 57.1313 115.595 56.1336C115.595 55.1359 116.407 54.3267 117.407 54.3267H174.455C175.455 54.3267 176.267 55.1331 176.27 56.1308C176.27 57.1285 175.461 57.9378 174.46 57.9405C174.454 57.9405 174.455 57.9405 174.455 57.9405Z" fill="#E6E6E6"/>
<path d="M181.929 64.0376H117.407C116.407 64.0376 115.595 63.2283 115.595 62.2306C115.595 61.2329 116.407 60.4237 117.407 60.4237H181.929C182.929 60.4237 183.741 61.2329 183.741 62.2306C183.741 63.2311 182.929 64.0376 181.929 64.0376Z" fill="#E6E6E6"/>
<path d="M174.455 78.055H117.407C116.407 78.055 115.595 77.2458 115.595 76.2481C115.595 75.2504 116.407 74.4412 117.407 74.4412H174.455C175.455 74.4412 176.267 75.2504 176.267 76.2481C176.267 77.2458 175.455 78.055 174.455 78.055Z" fill="#E6E6E6"/>
<path d="M181.929 84.1519H117.407C116.407 84.1519 115.595 83.3427 115.595 82.345C115.595 81.3473 116.407 80.5381 117.407 80.5381H181.929C182.929 80.5381 183.741 81.3473 183.741 82.345C183.741 83.3427 182.929 84.1519 181.929 84.1519Z" fill="#E6E6E6"/>
<path d="M174.454 98.1671H117.407C116.407 98.1671 115.595 97.3606 115.592 96.3629C115.592 95.3652 116.401 94.556 117.402 94.5532H117.405H174.452C175.452 94.5532 176.264 95.3597 176.267 96.3574C176.267 97.3551 175.458 98.1643 174.457 98.1671C174.454 98.1671 174.454 98.1671 174.454 98.1671Z" fill="#E6E6E6"/>
<path d="M181.929 104.264H117.407C116.407 104.264 115.595 103.458 115.592 102.46C115.592 101.462 116.401 100.653 117.402 100.65H117.405H181.926C182.926 100.65 183.738 101.459 183.735 102.46C183.738 103.455 182.926 104.264 181.929 104.264Z" fill="#E6E6E6"/>
<path d="M141.317 164.347H60.3712C58.2504 164.344 56.5299 162.629 56.5271 160.514V50.9517C56.5299 48.8371 58.2504 47.1217 60.3712 47.1189H141.317C143.437 47.1217 145.158 48.8371 145.161 50.9517V160.517C145.158 162.632 143.44 164.347 141.317 164.347Z" fill="white"/>
<path d="M67.1231 75.3256C67.1175 79.3108 68.7102 83.1325 71.5425 85.9427C71.6593 86.059 71.7815 86.1755 71.9011 86.2863C72.6349 86.9681 73.4326 87.5778 74.2887 88.0988C74.4527 88.1985 74.6167 88.2955 74.7834 88.3898C75.6479 88.8748 76.5568 89.2738 77.5018 89.5787C77.6658 89.6313 77.8298 89.6812 77.9966 89.7283C80.9929 90.5847 84.1838 90.496 87.1301 89.4734C87.1885 89.454 87.2441 89.4318 87.2997 89.4124C95.1046 86.5828 99.1266 77.9806 96.2887 70.1986C93.4508 62.4166 84.8231 58.4065 77.0182 61.236C71.0783 63.3921 67.1231 69.0208 67.1231 75.3256Z" fill="white"/>
<path d="M78.9804 82.6724C78.9888 83.8336 78.558 84.956 77.7769 85.8179C77.0042 86.6632 75.8535 87.2258 74.6916 86.993C73.6215 86.7796 72.7543 85.8484 72.8627 84.7205C72.9322 83.7921 73.741 83.0964 74.6694 83.1657C74.7639 83.1713 74.8556 83.1879 74.9473 83.2101C75.9619 83.4734 76.3677 84.9339 75.5227 85.6184C75.3198 85.7819 75.0279 85.4964 75.2336 85.3302C75.6506 84.9505 75.6811 84.3048 75.2976 83.8863C75.2003 83.7782 75.078 83.6923 74.9446 83.6369C74.2663 83.4207 73.5437 83.7921 73.3269 84.4683C73.2963 84.568 73.2768 84.6678 73.2685 84.7731C73.2018 85.7237 73.9328 86.4387 74.8278 86.6078C75.7979 86.7907 76.7568 86.2946 77.4128 85.6128C78.166 84.8202 78.5802 83.7671 78.5718 82.678C78.5746 82.5643 78.6719 82.4757 78.7831 82.4812C78.8915 82.4784 78.9777 82.5643 78.9804 82.6724Z" fill="#262626"/>
<path d="M82.9854 85.2719C87.0258 85.2719 90.3011 82.0061 90.3011 77.9777C90.3011 73.9492 87.0258 70.6835 82.9854 70.6835C78.945 70.6835 75.6697 73.9492 75.6697 77.9777C75.6697 82.0061 78.945 85.2719 82.9854 85.2719Z" fill="#FDBC01"/>
<path d="M82.6104 81.0896L82.6021 80.818C83.1107 80.8041 83.5582 80.7709 83.8945 80.527C84.0891 80.3773 84.2058 80.1528 84.2197 79.909C84.2308 79.7593 84.1725 79.6152 84.0613 79.5154C83.8028 79.3575 83.4776 79.3547 83.2163 79.5071L82.9912 79.6097L83.4248 76.4503L83.6944 76.4863L83.3247 79.1746C83.6305 79.0609 83.9751 79.1108 84.2364 79.3048C84.4115 79.4572 84.506 79.6845 84.4893 79.9173C84.4727 80.2443 84.3142 80.5464 84.053 80.7459C83.6249 81.0591 83.0635 81.0757 82.6104 81.0896Z" fill="#262626"/>
<path d="M86.5103 76.7194H85.0371V76.991H86.5103V76.7194Z" fill="#262626"/>
<path d="M81.8626 76.7194H80.3894V76.991H81.8626V76.7194Z" fill="#262626"/>
<path d="M77.9937 89.7308C80.99 90.5871 84.1809 90.4984 87.1272 89.4758C87.1856 89.4564 87.2412 89.4342 87.2967 89.4148C86.6019 88.88 85.818 88.4781 84.9814 88.2204C85.0398 88.0098 85.0398 87.788 84.9786 87.5802C84.8091 87.037 84.3004 86.6684 83.7278 86.674H81.9461C81.3763 86.6657 80.8677 87.0342 80.6981 87.5774C80.637 87.7881 80.637 88.0098 80.6954 88.2204C79.956 88.4449 79.2583 88.7857 78.6302 89.2292C78.5023 89.3178 78.38 89.4093 78.2605 89.5063C78.1688 89.5783 78.0798 89.6559 77.9937 89.7308Z" fill="#262626"/>
<path d="M88.7141 77.2041C88.7141 78.4346 89.32 79.4517 90.1094 79.629C90.19 79.6457 90.2706 79.6568 90.354 79.6568C91.2574 79.6568 91.9939 78.5565 91.9939 77.2041C92.0134 76.5057 91.791 75.824 91.363 75.2725C91.2296 75.1117 91.0656 74.9787 90.8794 74.8817C90.7181 74.7958 90.5375 74.7515 90.354 74.7515C90.1011 74.7542 89.8593 74.8374 89.6564 74.987C89.1005 75.3778 88.7141 76.223 88.7141 77.2041Z" fill="#3F3D56"/>
<path d="M74.0913 77.2042C74.0913 78.2628 74.5388 79.1635 75.1669 79.5099C75.3393 79.6069 75.5338 79.6568 75.7312 79.6596C75.7757 79.6596 75.8201 79.6568 75.8618 79.6513C76.704 79.5515 77.3711 78.4956 77.3711 77.2069C77.3711 76.176 76.9431 75.2919 76.3399 74.9289C76.1565 74.8152 75.948 74.7543 75.7312 74.7543C75.5477 74.7543 75.3671 74.7986 75.2059 74.8845C75.0196 74.9815 74.8556 75.1146 74.7222 75.2781C74.2942 75.824 74.0718 76.5058 74.0913 77.2042Z" fill="#3F3D56"/>
<path d="M75.2696 79.272C75.3836 79.272 75.4753 79.1805 75.4753 79.0669C75.4753 79.0447 75.4725 79.0225 75.4642 79.0031C74.0578 74.8295 76.3092 70.3094 80.4952 68.9071C84.6811 67.5048 89.2145 69.7496 90.621 73.9232C91.0768 75.2729 91.1602 76.7168 90.8656 78.108C90.8433 78.2188 90.9128 78.3269 91.024 78.3491C91.1352 78.3713 91.2436 78.302 91.2658 78.1911C92.2248 73.6627 89.3202 69.2147 84.7756 68.2614C80.2311 67.308 75.7727 70.2013 74.8166 74.7325C74.5081 76.1958 74.597 77.7172 75.0751 79.1362C75.1056 79.2165 75.1835 79.272 75.2696 79.272Z" fill="#3F3D56"/>
<path d="M86.6602 73.2525C86.9103 73.6599 86.8436 74.1837 86.5017 74.519C86.1043 74.9625 85.4705 74.9902 84.9202 74.907C84.3031 74.8156 83.6499 74.5273 83.0245 74.7213C82.4909 74.8876 82.1129 75.3671 81.5597 75.489C81.0705 75.5971 80.4813 75.453 80.3117 74.932C80.2283 74.6825 80.6258 74.5745 80.7064 74.8239C80.8176 75.162 81.2985 75.1537 81.5736 75.0622C82.0156 74.9126 82.3547 74.5495 82.7883 74.3749C83.3053 74.2142 83.8584 74.217 84.3754 74.3805C84.8646 74.4913 85.4316 74.6548 85.918 74.447C86.2794 74.2945 86.5684 73.8151 86.3072 73.4604C86.1487 73.247 86.5045 73.0419 86.6602 73.2525Z" fill="#262626"/>
<path d="M82.1573 90.7232C80.7119 90.7232 79.2721 90.5237 77.8824 90.1246C77.7184 90.0803 77.546 90.0276 77.3737 89.9694C76.4064 89.6562 75.4697 89.2461 74.5831 88.7472C74.4163 88.653 74.2495 88.556 74.0716 88.4479C73.1933 87.9103 72.3734 87.2867 71.6201 86.5856C71.495 86.4692 71.3727 86.3528 71.2532 86.2336C65.2133 80.2281 65.1994 70.4812 71.2198 64.4591C77.2431 58.4369 87.0187 58.4231 93.0586 64.4258C99.0985 70.4314 99.1124 80.1782 93.0919 86.2004C91.4937 87.7994 89.5619 89.0271 87.4356 89.7976C87.38 89.817 87.3216 89.8391 87.2633 89.8585C85.6234 90.4322 83.8973 90.726 82.1573 90.7232ZM82.1573 60.7427C74.08 60.7427 67.5314 67.272 67.5342 75.3256C67.5342 79.1999 69.0824 82.9163 71.8341 85.6516C71.9481 85.7625 72.0648 85.8761 72.1843 85.987C72.8959 86.6521 73.6742 87.2424 74.5052 87.7523C74.672 87.8549 74.8304 87.9491 74.9861 88.035C75.8255 88.5061 76.7122 88.8941 77.6294 89.1934C77.7906 89.2461 77.9519 89.296 78.1075 89.3375C81.0232 90.1717 84.128 90.0858 86.9937 89.0881L87.1604 89.0299C94.7513 86.2752 98.6649 77.9057 95.902 70.3371C93.7952 64.5783 88.3056 60.7427 82.1573 60.7427Z" fill="#CCCCCC"/>
<path d="M141.317 164.347H60.3712C58.2504 164.344 56.5299 162.629 56.5271 160.514V50.9517C56.5299 48.8371 58.2504 47.1217 60.3712 47.1189H141.317C143.437 47.1217 145.158 48.8371 145.161 50.9517V160.517C145.158 162.632 143.44 164.347 141.317 164.347ZM60.3712 47.5679C58.4978 47.5706 56.9829 49.0838 56.9802 50.9489V160.517C56.9829 162.385 58.5006 163.895 60.3712 163.898H141.317C143.19 163.895 144.705 162.382 144.708 160.517V50.9517C144.705 49.0838 143.187 47.5734 141.317 47.5706H60.3712V47.5679Z" fill="#3F3D56"/>
<path d="M125.649 75.5748H102.743C101.742 75.5748 100.93 74.7683 100.927 73.7706C100.927 72.7729 101.736 71.9637 102.737 71.9609H102.74H125.646C126.646 71.9609 127.458 72.7674 127.461 73.7651C127.461 74.7628 126.652 75.572 125.651 75.5748C125.649 75.5748 125.649 75.5748 125.649 75.5748Z" fill="#FDBC01"/>
<path d="M133.123 81.6717H102.743C101.742 81.6717 100.93 80.8652 100.927 79.8676C100.927 78.8699 101.736 78.0606 102.737 78.0579H102.74H133.12C134.121 78.0579 134.932 78.8671 134.929 79.8676C134.932 80.8625 134.121 81.6717 133.123 81.6717Z" fill="#FDBC01"/>
<path d="M125.615 105.06H68.5656C67.565 105.06 66.7533 104.25 66.7561 103.25C66.7561 102.252 67.5677 101.446 68.5656 101.446H125.613C126.613 101.446 127.425 102.255 127.422 103.255C127.425 104.25 126.613 105.06 125.615 105.06Z" fill="#CCCCCC"/>
<path d="M133.09 111.156H68.5656C67.565 111.156 66.7533 110.347 66.7561 109.347C66.7561 108.349 67.5677 107.543 68.5656 107.543H133.087C134.087 107.543 134.899 108.352 134.896 109.352C134.899 110.347 134.087 111.156 133.09 111.156Z" fill="#CCCCCC"/>
<path d="M125.615 125.171H68.5656C67.5649 125.168 66.7561 124.359 66.7561 123.362C66.7589 122.367 67.5677 121.56 68.5656 121.557H125.613C126.613 121.557 127.425 122.367 127.422 123.367C127.425 124.362 126.613 125.171 125.615 125.171Z" fill="#CCCCCC"/>
<path d="M133.09 131.268H68.5656C67.5649 131.265 66.7561 130.456 66.7561 129.458C66.7589 128.463 67.5677 127.657 68.5656 127.654H133.087C134.087 127.654 134.899 128.463 134.896 129.464C134.899 130.461 134.087 131.268 133.09 131.268Z" fill="#CCCCCC"/>
<path d="M125.615 145.282H68.5656C67.565 145.282 66.7533 144.473 66.7561 143.473C66.7561 142.475 67.5677 141.669 68.5656 141.669H125.613C126.613 141.669 127.425 142.478 127.422 143.478C127.425 144.476 126.613 145.282 125.615 145.282Z" fill="#CCCCCC"/>
<path d="M133.09 151.383H68.5656C67.565 151.383 66.7533 150.573 66.7561 149.573C66.7561 148.575 67.5677 147.769 68.5656 147.769H133.087C134.087 147.769 134.899 148.575 134.902 149.573C134.902 150.571 134.093 151.38 133.092 151.383H133.09Z" fill="#CCCCCC"/>
<circle cx="140.5" cy="156.5" r="17.5" fill="white"/>
<path d="M153.563 169.02C153.298 168.755 152.869 168.755 152.604 169.02C152.339 169.285 152.339 169.715 152.604 169.98L153.563 169.02ZM158.937 176.313C159.202 176.578 159.632 176.578 159.897 176.313C160.162 176.048 160.162 175.619 159.897 175.354L158.937 176.313ZM152.604 169.98L158.937 176.313L159.897 175.354L153.563 169.02L152.604 169.98ZM140.417 170.405C132.921 170.405 126.845 164.329 126.845 156.833H125.488C125.488 165.078 132.172 171.762 140.417 171.762V170.405ZM153.988 156.833C153.988 164.329 147.912 170.405 140.417 170.405V171.762C148.662 171.762 155.345 165.078 155.345 156.833H153.988ZM140.417 143.262C147.912 143.262 153.988 149.338 153.988 156.833H155.345C155.345 148.589 148.662 141.905 140.417 141.905V143.262ZM140.417 141.905C132.172 141.905 125.488 148.589 125.488 156.833H126.845C126.845 149.338 132.921 143.262 140.417 143.262V141.905Z" fill="#FDBC01"/>
</svg>
