<svg width="211" height="169" viewBox="0 0 211 169" fill="none" xmlns="http://www.w3.org/2000/svg">
<path d="M209.265 24.2666H88.5662C87.6095 24.2666 86.8313 25.0419 86.8313 25.9949V107.472C86.8313 108.425 87.6095 109.2 88.5662 109.2H209.265C210.222 109.2 211 108.425 211 107.472V25.9949C211 25.0419 210.224 24.2666 209.265 24.2666ZM210.504 107.472C210.504 108.153 209.949 108.706 209.265 108.706H88.5662C87.8821 108.706 87.327 108.153 87.327 107.472V25.9949C87.327 25.3135 87.8821 24.7604 88.5662 24.7604H209.265C209.949 24.7604 210.504 25.3135 210.504 25.9949V107.472Z" fill="#3F3D56"/>
<path d="M211 31.2H86.8313V32.0666H211V31.2Z" fill="#3F3D56"/>
<path d="M91.1729 29.4666C92.132 29.4666 92.9095 28.8845 92.9095 28.1666C92.9095 27.4486 92.132 26.8666 91.1729 26.8666C90.2138 26.8666 89.4363 27.4486 89.4363 28.1666C89.4363 28.8845 90.2138 29.4666 91.1729 29.4666Z" fill="#3F3D56"/>
<path d="M95.0803 29.4666C95.7996 29.4666 96.3828 28.8845 96.3828 28.1666C96.3828 27.4486 95.7996 26.8666 95.0803 26.8666C94.361 26.8666 93.7778 27.4486 93.7778 28.1666C93.7778 28.8845 94.361 29.4666 95.0803 29.4666Z" fill="#3F3D56"/>
<path d="M99.4219 29.4666C100.141 29.4666 100.724 28.8845 100.724 28.1666C100.724 27.4486 100.141 26.8666 99.4219 26.8666C98.7025 26.8666 98.1194 27.4486 98.1194 28.1666C98.1194 28.8845 98.7025 29.4666 99.4219 29.4666Z" fill="#3F3D56"/>
<path d="M117.222 42.4667H96.3826C95.4225 42.4667 94.646 41.6916 94.646 40.7333C94.646 39.775 95.4225 39 96.3826 39H117.222C118.182 39 118.959 39.775 118.959 40.7333C118.959 41.6916 118.182 42.4667 117.222 42.4667Z" fill="#CCCCCC"/>
<path d="M145.872 51.1334H96.3867C95.4243 51.1334 94.646 50.3584 94.646 49.4001C94.646 48.4418 95.4243 47.6667 96.3867 47.6667H145.872C146.835 47.6667 147.613 48.4418 147.613 49.4001C147.613 50.3584 146.835 51.1334 145.872 51.1334Z" fill="#CCCCCC"/>
<path d="M161.993 54.6001C154.941 64.9374 157.56 79.0629 167.841 86.1531C171.599 88.7443 176.052 90.1334 180.609 90.1334V70.3218L161.993 54.6001Z" fill="#FDBC01"/>
<path d="M180.609 45.0667C172.972 45.0618 165.821 48.6862 161.506 54.7514L180.609 70.2V45.0667Z" fill="#CCCCCC"/>
<path d="M179.993 90.1333H179.741V44.2H179.993C192.802 44.2 203.185 54.4825 203.185 67.1666C203.185 79.8507 192.802 90.1333 179.993 90.1333ZM180.245 44.7017V89.634C192.774 89.4967 202.82 79.3265 202.678 66.917C202.542 54.7047 192.58 44.8365 180.245 44.7017Z" fill="#3F3D56"/>
<path d="M110.81 99.6667H106.268C105.606 99.6667 105.066 99.1536 105.066 98.5236V86.0765C105.066 85.4465 105.606 84.9333 106.268 84.9333H110.81C111.473 84.9333 112.012 85.4465 112.012 86.0765V98.5236C112.012 99.1536 111.473 99.6667 110.81 99.6667Z" fill="#CCCCCC"/>
<path d="M123.117 99.6667H119.143C118.563 99.6667 118.091 99.148 118.091 98.5111V80.0223C118.091 79.3854 118.563 78.8667 119.143 78.8667H123.117C123.697 78.8667 124.169 79.3854 124.169 80.0223V98.5111C124.169 99.148 123.697 99.6667 123.117 99.6667Z" fill="#F2F2F2"/>
<path d="M135.273 99.6667H131.299C130.719 99.6667 130.247 99.164 130.247 98.5469V75.6531C130.247 75.036 130.719 74.5333 131.299 74.5333H135.273C135.853 74.5333 136.325 75.036 136.325 75.6531V98.5469C136.325 99.164 135.853 99.6667 135.273 99.6667Z" fill="#FDBC01"/>
<path d="M110.726 99.6666H106.352C105.642 99.6666 105.066 99.1004 105.066 98.4027V70.5971C105.066 69.8995 105.642 69.3333 106.352 69.3333H110.726C111.436 69.3333 112.012 69.8995 112.012 70.5971V98.4027C112.012 99.1004 111.436 99.6666 110.726 99.6666ZM106.352 69.8388C105.925 69.8388 105.58 70.1775 105.58 70.5971V98.4027C105.58 98.8223 105.925 99.161 106.352 99.161H110.726C111.153 99.161 111.498 98.8223 111.498 98.4027V70.5971C111.498 70.1775 111.153 69.8388 110.726 69.8388H106.352Z" fill="#3F3D56"/>
<path d="M122.882 99.6666H118.509C117.798 99.6666 117.222 99.1004 117.222 98.4027V70.5971C117.222 69.8995 117.798 69.3333 118.509 69.3333H122.882C123.592 69.3333 124.169 69.8995 124.169 70.5971V98.4027C124.169 99.1004 123.592 99.6666 122.882 99.6666ZM118.509 69.8388C118.081 69.8388 117.737 70.1775 117.737 70.5971V98.4027C117.737 98.8223 118.081 99.161 118.509 99.161H122.882C123.309 99.161 123.654 98.8223 123.654 98.4027V70.5971C123.654 70.1775 123.309 69.8388 122.882 69.8388H118.509Z" fill="#3F3D56"/>
<path d="M50.2973 90.7034C49.4798 90.0106 48.2494 90.1064 47.5488 90.9146L45.2703 93.5365L44.6608 94.2378C43.9601 95.046 44.0513 96.2626 44.8659 96.9611L54.9682 105.548L72.8859 120.769C73.6606 121.428 74.8198 121.383 75.5432 120.668C75.5774 120.634 75.6087 120.601 75.64 120.567L77.3831 118.562L78.528 117.244C78.6192 117.139 78.7018 117.024 78.7673 116.9C78.9439 116.576 79.0208 116.207 78.9951 115.841C78.9581 115.329 78.7132 114.855 78.3201 114.523L76.184 112.707L60.3825 99.2816L50.3001 90.7118C50.3001 90.7062 50.2973 90.7062 50.2973 90.7034Z" fill="#FDBC01"/>
<path d="M42.3084 82.7264C51.1415 82.7264 58.3023 75.5776 58.3023 66.7591C58.3023 57.9406 51.1415 50.7917 42.3084 50.7917C33.4752 50.7917 26.3145 57.9406 26.3145 66.7591C26.3145 75.5776 33.4752 82.7264 42.3084 82.7264Z" fill="#FDBC01"/>
<path d="M59.3125 73.5109C59.8301 73.0705 60.1494 72.394 60.1804 71.6686C60.2113 71.1504 60.0258 70.6466 59.6756 70.304C59.2275 69.8809 58.5708 69.7801 57.8626 70.0133L58.5965 64.0255L58.0583 63.942L57.1956 70.9805L57.6437 70.7502C58.1639 70.4825 58.8798 70.3472 59.3228 70.7675C59.5443 70.9892 59.6601 71.3145 59.637 71.6455C59.6112 72.1867 59.3743 72.6876 58.9906 73.0187C58.321 73.5656 57.4299 73.6347 56.4204 73.6664L56.4359 74.2738C57.3346 74.2479 58.4523 74.2134 59.3125 73.5109Z" fill="#262626"/>
<path d="M38.5434 93.4127C38.5434 93.4098 38.5434 93.4098 38.5434 93.407C38.5882 92.3218 37.7097 91.4088 36.5801 91.3657L32.9164 91.2222L31.9362 91.182C30.8067 91.1389 29.8534 91.9801 29.8026 93.0653L29.2228 106.481L28.1979 130.272C28.153 131.303 28.9449 132.19 30.0088 132.311C30.0596 132.316 30.1074 132.319 30.1582 132.322L32.9612 132.434L34.805 132.506C34.9514 132.512 35.1009 132.503 35.2473 132.48C35.6328 132.414 35.9884 132.245 36.2783 131.989C36.6787 131.636 36.9178 131.142 36.9357 130.62L37.0582 127.783L37.9637 106.803L38.5434 93.4127Z" fill="#FDBC01"/>
<path d="M47.4266 57.3101C47.3103 56.7788 46.4911 57.0037 46.6074 57.5349C46.922 59.0528 48.2628 60.149 49.8246 60.1659C51.6615 60.1856 53.1666 58.7295 53.1865 56.9081L52.3503 57.0205C53.1865 59.0387 55.1537 60.3711 57.3533 60.4133C59.3517 60.4582 61.1715 59.2805 62.1778 57.608C63.2125 55.8765 63.2833 53.7402 62.3592 51.9469C61.4408 50.1254 59.7146 48.8352 57.6935 48.467C55.5959 48.1157 53.4529 48.7397 51.8826 50.162L52.594 50.3475C52.4977 49.8359 52.3701 49.3328 52.2142 48.8352C50.8876 44.751 47.8574 41.4258 43.8947 39.6999C39.8554 37.9712 35.2435 38.2973 31.3771 40.3295C29.4637 41.333 27.7941 42.7413 26.4902 44.4531C24.9737 46.4516 24.1375 48.8493 23.4147 51.2217C22.706 53.5519 22.0824 55.9243 20.8975 58.0718C19.8431 59.986 18.3294 61.7765 16.2375 62.6029C15.3842 62.9459 14.4715 63.1173 13.5503 63.1145C9.62434 63.1005 6.45242 59.9326 6.46659 56.0395C6.45809 55.8175 6.27951 55.6404 6.05557 55.632C5.8203 55.6235 5.62471 55.8062 5.61621 56.0395C5.61905 57.0767 5.82597 58.1055 6.22848 59.064C7.92358 63.1033 12.5978 65.0119 16.6712 63.331C21.1838 61.4449 22.7627 56.3515 24.0354 52.1015C24.7611 49.6729 25.5349 47.2077 27.0401 45.1249C28.3129 43.3962 29.9768 41.9879 31.8958 41.0098C35.748 39.0168 40.3911 38.8369 44.2858 40.8102C48.0984 42.7413 50.9698 46.3785 51.7692 50.5668C51.789 50.6342 51.823 50.6932 51.8741 50.7438C52.0385 50.9125 52.3106 50.9181 52.4807 50.7523C54.0255 49.3609 56.1883 48.8662 58.1924 49.4424C59.8591 49.9596 61.1971 51.2048 61.8235 52.8211C62.4358 54.4205 62.1863 56.2166 61.163 57.594C60.1879 58.9825 58.5212 59.7246 56.8289 59.525C55.2557 59.3058 53.7506 58.2854 53.1638 56.79C53.1099 56.6186 52.9512 56.4977 52.7698 56.4921C52.5345 56.4837 52.3361 56.6692 52.3276 56.9025C52.3106 58.0746 51.4574 59.0725 50.2952 59.2805C48.9573 59.5306 47.6703 58.6452 47.4266 57.3101Z" fill="#262626"/>
<mask id="path-21-inside-1_1_1225" fill="white">
<path fill-rule="evenodd" clip-rule="evenodd" d="M33.8422 89.3014C34.23 89.3014 34.6178 89.3387 34.9969 89.419C35.8703 89.6009 36.6608 89.9765 37.3264 90.495L37.3878 90.2399H45.7499C47.7483 88.9102 50.4595 88.9706 52.4156 90.5675L52.4213 90.5732L60.4031 97.0937C61.0189 97.6021 61.2721 98.4294 61.039 99.1934C60.9642 99.4376 60.8433 99.6645 60.6793 99.8627L56.0669 105.487C55.9835 105.59 55.8885 105.685 55.785 105.766C55.057 106.357 54.0154 106.354 53.2903 105.763L52.0621 104.759L59.2431 136.263H50.7755V166.269C50.7755 167.333 49.8871 168.198 48.7932 168.198H44.2904C43.1965 168.198 42.3081 167.333 42.3081 166.269V136.263H41.3673V166.269C41.3673 167.333 40.4789 168.198 39.385 168.198H34.8822C33.7883 168.198 32.8999 167.333 32.8999 166.269V136.263H26.3145L33.3199 107.147H30.1782C30.0625 107.144 29.9438 107.136 29.8281 107.113C29.5647 107.067 29.3129 106.969 29.0901 106.823C28.5344 106.456 28.1987 105.842 28.1958 105.18V94.8972C28.2016 91.8082 30.7252 89.3043 33.8422 89.3014Z"/>
</mask>
<path fill-rule="evenodd" clip-rule="evenodd" d="M33.8422 89.3014C34.23 89.3014 34.6178 89.3387 34.9969 89.419C35.8703 89.6009 36.6608 89.9765 37.3264 90.495L37.3878 90.2399H45.7499C47.7483 88.9102 50.4595 88.9706 52.4156 90.5675L52.4213 90.5732L60.4031 97.0937C61.0189 97.6021 61.2721 98.4294 61.039 99.1934C60.9642 99.4376 60.8433 99.6645 60.6793 99.8627L56.0669 105.487C55.9835 105.59 55.8885 105.685 55.785 105.766C55.057 106.357 54.0154 106.354 53.2903 105.763L52.0621 104.759L59.2431 136.263H50.7755V166.269C50.7755 167.333 49.8871 168.198 48.7932 168.198H44.2904C43.1965 168.198 42.3081 167.333 42.3081 166.269V136.263H41.3673V166.269C41.3673 167.333 40.4789 168.198 39.385 168.198H34.8822C33.7883 168.198 32.8999 167.333 32.8999 166.269V136.263H26.3145L33.3199 107.147H30.1782C30.0625 107.144 29.9438 107.136 29.8281 107.113C29.5647 107.067 29.3129 106.969 29.0901 106.823C28.5344 106.456 28.1987 105.842 28.1958 105.18V94.8972C28.2016 91.8082 30.7252 89.3043 33.8422 89.3014Z" fill="#262626"/>
<path d="M34.9969 89.419L34.7897 90.3973L34.793 90.398L34.9969 89.419ZM33.8422 89.3014V88.3014L33.8412 88.3014L33.8422 89.3014ZM37.3264 90.495L36.7119 91.2839L37.9358 92.2371L38.2987 90.7289L37.3264 90.495ZM37.3878 90.2399V89.2399H36.5999L36.4155 90.0059L37.3878 90.2399ZM45.7499 90.2399V91.2399H46.0522L46.3038 91.0724L45.7499 90.2399ZM52.4156 90.5675L53.1221 89.8597L53.0867 89.8244L53.048 89.7928L52.4156 90.5675ZM52.4213 90.5732L51.7149 91.281L51.7501 91.3161L51.7887 91.3477L52.4213 90.5732ZM60.4031 97.0937L61.0398 96.3226L61.0358 96.3192L60.4031 97.0937ZM61.039 99.1934L61.9951 99.4864L61.9955 99.4852L61.039 99.1934ZM60.6793 99.8627L59.9089 99.2252L59.9061 99.2286L60.6793 99.8627ZM56.0669 105.487L55.2937 104.853L55.2887 104.859L56.0669 105.487ZM55.785 105.766L55.1717 104.976L55.1629 104.983L55.1542 104.99L55.785 105.766ZM53.2903 105.763L52.6577 106.537L52.658 106.537L53.2903 105.763ZM52.0621 104.759L52.6948 103.985L50.4401 102.143L51.0871 104.982L52.0621 104.759ZM59.2431 136.263V137.263H60.4967L60.2181 136.041L59.2431 136.263ZM50.7755 136.263V135.263H49.7755V136.263H50.7755ZM42.3081 136.263H43.3081V135.263H42.3081V136.263ZM41.3673 136.263V135.263H40.3673V136.263H41.3673ZM32.8999 136.263H33.8999V135.263H32.8999V136.263ZM26.3145 136.263L25.3422 136.029L25.0453 137.263H26.3145V136.263ZM33.3199 107.147L34.2921 107.381L34.589 106.147H33.3199V107.147ZM30.1782 107.147L30.1535 108.147L30.1659 108.147H30.1782V107.147ZM29.8281 107.113L30.0225 106.132L30.0111 106.13L29.9997 106.128L29.8281 107.113ZM29.0901 106.823L28.5388 107.657L28.5413 107.659L29.0901 106.823ZM28.1958 105.18H27.1958L27.1958 105.184L28.1958 105.18ZM28.1958 94.8972L27.1958 94.8953V94.8972H28.1958ZM35.2041 88.4407C34.7513 88.3448 34.2937 88.3014 33.8422 88.3014V90.3014C34.1662 90.3014 34.4842 90.3326 34.7897 90.3973L35.2041 88.4407ZM37.9409 89.706C37.1568 89.0954 36.2264 88.6536 35.2008 88.44L34.793 90.398C35.5142 90.5482 36.1648 90.8577 36.7119 91.2839L37.9409 89.706ZM38.2987 90.7289L38.3601 90.4738L36.4155 90.0059L36.3542 90.2611L38.2987 90.7289ZM37.3878 91.2399H45.7499V89.2399H37.3878V91.2399ZM46.3038 91.0724C47.9472 89.979 50.1765 90.0305 51.7832 91.3421L53.048 89.7928C50.7425 87.9108 47.5494 87.8414 45.1959 89.4073L46.3038 91.0724ZM51.7091 91.2752L51.7149 91.281L53.1278 89.8655L53.1221 89.8597L51.7091 91.2752ZM51.7887 91.3477L59.7705 97.8681L61.0358 96.3192L53.054 89.7988L51.7887 91.3477ZM59.7664 97.8648C60.0739 98.1187 60.1965 98.528 60.0825 98.9017L61.9955 99.4852C62.3476 98.3307 61.9638 97.0855 61.0398 96.3226L59.7664 97.8648ZM60.0829 98.9005C60.0458 99.0215 59.9871 99.1307 59.9089 99.2252L61.4498 100.5C61.6996 100.198 61.8826 99.8537 61.9951 99.4864L60.0829 98.9005ZM59.9061 99.2286L55.2937 104.853L56.8402 106.121L61.4526 100.497L59.9061 99.2286ZM55.2887 104.859C55.2498 104.907 55.2093 104.947 55.1717 104.976L56.3982 106.555C56.5678 106.424 56.7172 106.274 56.8452 106.115L55.2887 104.859ZM55.1542 104.99C54.7951 105.281 54.2811 105.281 53.9226 104.988L52.658 106.537C53.7497 107.428 55.3188 107.433 56.4157 106.542L55.1542 104.99ZM53.923 104.988L52.6948 103.985L51.4295 105.534L52.6577 106.537L53.923 104.988ZM51.0871 104.982L58.2681 136.486L60.2181 136.041L53.0371 104.537L51.0871 104.982ZM59.2431 135.263H50.7755V137.263H59.2431V135.263ZM49.7755 136.263V166.269H51.7755V136.263H49.7755ZM49.7755 166.269C49.7755 166.756 49.3605 167.198 48.7932 167.198V169.198C50.4136 169.198 51.7755 167.911 51.7755 166.269H49.7755ZM48.7932 167.198H44.2904V169.198H48.7932V167.198ZM44.2904 167.198C43.7231 167.198 43.3081 166.756 43.3081 166.269H41.3081C41.3081 167.911 42.67 169.198 44.2904 169.198V167.198ZM43.3081 166.269V136.263H41.3081V166.269H43.3081ZM42.3081 135.263H41.3673V137.263H42.3081V135.263ZM40.3673 136.263V166.269H42.3673V136.263H40.3673ZM40.3673 166.269C40.3673 166.756 39.9523 167.198 39.385 167.198V169.198C41.0054 169.198 42.3673 167.911 42.3673 166.269H40.3673ZM39.385 167.198H34.8822V169.198H39.385V167.198ZM34.8822 167.198C34.3149 167.198 33.8999 166.756 33.8999 166.269H31.8999C31.8999 167.911 33.2617 169.198 34.8822 169.198V167.198ZM33.8999 166.269V136.263H31.8999V166.269H33.8999ZM32.8999 135.263H26.3145V137.263H32.8999V135.263ZM27.2867 136.497L34.2921 107.381L32.3476 106.913L25.3422 136.029L27.2867 136.497ZM30.1782 108.147H33.3199V106.147H30.1782V108.147ZM29.6336 108.094C29.8272 108.132 30.0085 108.143 30.1535 108.147L30.203 106.148C30.1165 106.145 30.0604 106.139 30.0225 106.132L29.6336 108.094ZM28.5413 107.659C28.8826 107.883 29.2636 108.03 29.6564 108.098L29.9997 106.128C29.8658 106.104 29.7432 106.056 29.6388 105.987L28.5413 107.659ZM27.1958 105.184C27.2002 106.186 27.7084 107.109 28.5388 107.657L29.6413 105.989C29.3604 105.803 29.1972 105.499 29.1958 105.175L27.1958 105.184ZM27.1958 94.8972V105.18H29.1958V94.8972H27.1958ZM33.8412 88.3014C30.1804 88.3048 27.2026 91.2479 27.1958 94.8953L29.1958 94.8991C29.2005 92.3685 31.2701 90.3038 33.8431 90.3014L33.8412 88.3014Z" fill="black" mask="url(#path-21-inside-1_1_1225)"/>
<path d="M54.539 64.881H51.7166V65.6324H54.539V64.881Z" fill="#262626"/>
</svg>
