<svg width="230" height="147" viewBox="0 0 230 147" fill="none" xmlns="http://www.w3.org/2000/svg">
<g clip-path="url(#clip0_1_1288)">
<path d="M143.344 146.913C145.608 142.025 147.87 137.067 148.853 131.771C149.836 126.474 149.424 120.73 146.609 116.138C143.794 111.545 138.254 108.432 132.967 109.468C128.623 110.321 125.137 113.739 123.094 117.662C121.051 121.586 120.232 126.014 119.437 130.364C119.18 125.42 118.91 120.398 117.266 115.729C115.621 111.059 112.387 106.706 107.774 104.901C103.16 103.096 97.1622 104.516 94.7332 108.828C91.3084 114.903 95.8499 123.427 91.9131 129.184C91.239 123.409 85.1948 118.845 79.4491 119.773C73.7034 120.702 69.4089 126.937 70.59 132.63C71.2924 136.018 73.6056 138.898 76.3717 140.981C79.1378 143.064 82.3541 145.475 85.5344 146.841L143.344 146.913Z" fill="#F2F2F2"/>
<path d="M73.6054 123.856C78.1675 125.45 82.7733 127.063 86.9391 129.554C90.6727 131.789 93.9971 134.794 96.0967 138.643C97.2469 140.708 97.9313 143.002 98.0986 145.359C98.1295 145.853 98.9014 145.856 98.8705 145.359C98.6003 140.968 96.4595 136.949 93.4928 133.771C90.2404 130.287 86.0283 127.906 81.6772 126.06C79.099 124.964 76.4538 124.034 73.8113 123.111C73.3404 122.949 73.1397 123.694 73.6054 123.856Z" fill="white"/>
<path d="M99.9255 105.667C102.728 110.334 104.974 115.315 106.613 120.506C108.257 125.695 109.292 131.056 109.698 136.484C109.922 139.523 109.948 142.572 109.773 145.612C109.744 146.108 110.516 146.105 110.545 145.612C110.856 140.127 110.524 134.627 109.554 129.22C108.587 123.815 106.996 118.539 104.817 113.497C103.592 110.666 102.182 107.92 100.592 105.277C100.479 105.097 100.239 105.043 100.059 105.156C99.8869 105.266 99.8277 105.487 99.9255 105.667Z" fill="white"/>
<path d="M137.706 110.098C133.741 119.002 130.949 128.382 129.405 138.003C128.971 140.706 128.636 143.421 128.397 146.152C128.353 146.645 129.125 146.643 129.169 146.152C130.01 136.551 132.087 127.099 135.347 118.03C136.263 115.479 137.271 112.967 138.373 110.488C138.571 110.036 137.907 109.645 137.706 110.098Z" fill="white"/>
<path d="M27.2927 146.337C11.0153 142.102 -0.254746 127.299 0.00513502 110.494C0.036012 108.46 0.249578 106.382 1.10641 104.536C1.96325 102.69 3.55084 101.093 5.53983 100.656C7.70894 100.178 9.99898 101.155 11.6174 102.677C13.2359 104.199 14.296 106.21 15.2712 108.203C21.1481 120.218 25.6124 133.113 27.2849 146.383L27.2927 146.337Z" fill="#F2F2F2"/>
<path d="M4.5542 101.057L8.6737 110.409L12.7932 119.76C14.0978 122.722 15.3997 125.684 16.748 128.626C18.0835 131.542 19.4652 134.437 20.9422 137.286C22.414 140.13 23.9784 142.93 25.6792 145.648C25.8902 145.987 26.1038 146.324 26.3199 146.658C26.4691 146.889 26.8422 146.676 26.693 146.439C24.9613 143.742 23.366 140.96 21.871 138.129C20.3735 135.293 18.9737 132.406 17.6255 129.498C16.2694 126.572 14.9675 123.622 13.6681 120.673C12.2992 117.567 10.9329 114.461 9.56399 111.358L5.44449 102.006L4.93244 100.841C4.81666 100.587 4.44356 100.805 4.5542 101.057Z" fill="white"/>
<path d="M25.5741 146.401C15.9791 148.594 6.12931 143.948 1.7242 135.154C1.19157 134.09 0.741283 132.953 0.687248 131.765C0.633214 130.578 1.0269 129.318 1.94034 128.554C2.93869 127.721 4.38991 127.61 5.64043 127.965C6.89095 128.32 7.98451 129.076 9.02918 129.85C15.3255 134.504 21.1278 139.993 25.5792 146.432L25.5741 146.401Z" fill="#F2F2F2"/>
<path d="M1.53616 129.027L6.20116 132.771L10.8662 136.515C12.3431 137.7 13.8201 138.888 15.315 140.05C16.7971 141.205 18.2972 142.333 19.8308 143.416C21.3643 144.496 22.9313 145.527 24.5472 146.478C24.7479 146.597 24.9512 146.715 25.1519 146.831C25.2934 146.91 25.4272 146.699 25.2857 146.617C23.6595 145.684 22.0796 144.671 20.5358 143.604C18.9919 142.534 17.4841 141.413 15.9995 140.266C14.5045 139.114 13.0327 137.934 11.5609 136.751C10.0119 135.507 8.4629 134.265 6.9139 133.02L2.25148 129.279L1.66996 128.814C1.54646 128.714 1.41266 128.927 1.53616 129.027Z" fill="white"/>
<path d="M224.108 147H11.2368C11.067 147 10.9306 146.864 10.928 146.697C10.9254 146.529 11.0644 146.391 11.2316 146.388H11.2342H224.103C224.272 146.388 224.409 146.524 224.409 146.694C224.414 146.864 224.278 147 224.108 147Z" fill="#262626"/>
<path d="M218.514 116.327H204.102C204.102 116.682 203.814 116.97 203.459 116.97H189.312C189.111 117.119 188.931 117.294 188.769 117.485C188.285 118.06 188.02 118.788 188.023 119.541V120.056C188.023 121.83 189.464 123.27 191.239 123.27H218.514C220.289 123.267 221.728 121.83 221.73 120.056V119.541C221.728 117.767 220.289 116.33 218.514 116.327Z" fill="#262626"/>
<path d="M206.678 123.142H203.333V146.797H206.678V123.142Z" fill="#262626"/>
<path d="M216.198 146.681C216.198 147.041 211.129 146.82 204.876 146.82C198.624 146.82 193.555 147.041 193.555 146.681C193.555 146.321 198.624 143.457 204.876 143.457C211.129 143.457 216.198 146.318 216.198 146.681Z" fill="#262626"/>
<path d="M217.883 117.068L217.322 113.561C217.173 112.641 216.309 112.013 215.387 112.16L209.601 113.083L199.689 114.664L196.465 115.178H203.459C203.814 115.178 204.102 115.466 204.102 115.821V116.328C204.102 116.683 203.814 116.971 203.459 116.971H185.661C185.411 117.086 185.197 117.264 185.035 117.485C184.76 117.847 184.644 118.31 184.716 118.76L184.876 119.758L185.069 120.969L185.277 122.27C185.424 123.188 186.288 123.813 187.207 123.669L191.805 122.936L205.067 120.82L216.481 118.999C217.4 118.85 218.027 117.989 217.883 117.068Z" fill="#FDBC01"/>
<path d="M191.453 117.485C191.283 117.261 191.059 117.084 190.802 116.97H185.882C185.622 117.084 185.398 117.258 185.228 117.485C184.999 117.778 184.876 118.138 184.876 118.511V138.106C184.878 139.037 185.63 139.788 186.561 139.79H190.12C191.051 139.788 191.802 139.037 191.805 138.106V118.511C191.805 118.14 191.682 117.778 191.453 117.485Z" fill="#FDBC01"/>
<path d="M202.162 84.1102L202.129 84.0665L199.921 81.3487C199.802 81.2021 199.661 81.0787 199.501 80.981C199.416 80.9245 199.324 80.8782 199.229 80.8422C199.087 80.7856 198.94 80.7496 198.789 80.7342C198.688 80.7239 198.585 80.7213 198.485 80.729C198.482 80.729 198.482 80.729 198.48 80.7316C198.138 80.7573 197.813 80.8859 197.548 81.1019L193.017 84.7736L187.194 89.4944L178.505 96.5395L177.872 97.0538H188.867L189.502 96.5395L191.605 94.8348L191.754 94.7165L201.907 86.486L201.915 86.4809C202.123 86.3137 202.288 86.0978 202.396 85.8509C202.466 85.6889 202.512 85.5192 202.53 85.3444C202.579 84.8996 202.445 84.4573 202.162 84.1102Z" fill="#FDBC01"/>
<path d="M202.128 84.0665C201.987 83.3749 201.67 82.7269 201.212 82.1895C200.754 81.647 200.165 81.2305 199.501 80.9811C199.398 80.9425 199.298 80.9065 199.195 80.8782C198.964 80.8088 198.724 80.7599 198.485 80.7291C198.482 80.7291 198.482 80.7291 198.48 80.7317C197.397 80.6057 196.308 80.9065 195.444 81.5699L187.606 87.5557C187.269 87.8565 187.071 88.2808 187.053 88.7308C187.04 88.993 187.089 89.2553 187.194 89.4944C187.22 89.5484 187.248 89.6024 187.279 89.6538C187.338 89.7593 187.413 89.8544 187.495 89.9418L188.751 91.3509L191.671 94.624L191.754 94.7166L191.942 94.93C192.569 95.6165 193.635 95.6654 194.322 95.0406C194.324 95.038 194.324 95.038 194.327 95.0354L201.086 87.7794C201.436 87.4014 201.717 86.9643 201.907 86.4861C202.216 85.7198 202.293 84.8765 202.128 84.0665Z" fill="#262626"/>
<path d="M205.118 74.756C212.241 74.756 218.015 68.9863 218.015 61.869C218.015 54.7516 212.241 48.9819 205.118 48.9819C197.996 48.9819 192.222 54.7516 192.222 61.869C192.222 68.9863 197.996 74.756 205.118 74.756Z" fill="#FDBC01"/>
<path d="M209.953 115.294L209.601 113.083L209.392 111.784C209.246 110.866 208.381 110.239 207.46 110.386L198.086 111.88L195.544 112.286L195.029 112.368V115.178H203.459C203.814 115.178 204.102 115.466 204.102 115.821V116.328C204.102 116.683 203.814 116.971 203.459 116.971H176.784C176.784 116.976 176.786 116.981 176.786 116.986L176.946 117.984L177.347 120.493C177.494 121.411 178.358 122.036 179.277 121.892L183.875 121.159L184.876 121L185.069 120.969L191.805 119.894L196.388 119.161L203.66 118.002L203.768 117.984L208.551 117.223C209.472 117.076 210.097 116.215 209.953 115.294Z" fill="#FDBC01"/>
<path d="M222.669 105.837C222.669 116.343 221.601 122.627 205.134 120.827C205.111 120.825 205.09 120.822 205.067 120.82C202.131 120.529 199.226 119.974 196.388 119.161C194.913 118.732 193.48 118.169 192.106 117.485C191.782 117.32 191.471 117.148 191.164 116.971H203.459C203.814 116.971 204.102 116.683 204.102 116.328V115.821C204.102 115.466 203.814 115.178 203.459 115.178H195.029V98.9386C195.027 97.8972 194.185 97.0564 193.143 97.0538H186.286C186.345 96.8841 186.404 96.7119 186.469 96.5396C187.112 94.7603 187.873 93.0273 188.751 91.3509C189.953 89.0239 191.381 86.8203 193.017 84.7736C194.157 83.3492 195.436 82.0404 196.836 80.8679C199.416 78.739 202.226 77.4225 205.077 77.4225C215.591 77.4225 222.669 95.3311 222.669 105.837Z" fill="#262626"/>
<path d="M205.389 66.6463L205.401 66.1655C204.506 66.1398 203.713 66.0832 203.122 65.6512C202.782 65.389 202.571 64.9904 202.548 64.561C202.527 64.2988 202.63 64.0416 202.826 63.8642C203.219 63.5325 203.855 63.638 204.318 63.8514L204.717 64.0339L203.953 58.4492L203.474 58.5135L204.125 63.2626C203.585 63.062 202.978 63.1494 202.517 63.494C202.206 63.764 202.041 64.1651 202.069 64.5765C202.098 65.155 202.381 65.6898 202.841 66.0395C203.6 66.5949 204.591 66.6232 205.389 66.6463Z" fill="#262626"/>
<path d="M201.112 58.9225H198.516V59.4033H201.112V58.9225Z" fill="#262626"/>
<path d="M209.305 58.9225H206.708V59.4033H209.305V58.9225Z" fill="#262626"/>
<path d="M215.411 58.3283C214.407 56.819 212.642 56.1788 210.903 56.0245C208.945 55.8497 207.051 56.2276 205.139 56.5927C203.034 56.9964 200.806 57.3744 198.686 56.8627C196.784 56.423 195.192 55.1374 194.36 53.371C193.583 51.6714 193.416 49.7558 193.887 47.9483C194.384 46.025 195.619 44.3331 197.114 43.0552C200.165 40.4454 204.298 39.2755 208.271 39.3835C212.228 39.4863 216.054 40.8285 219.204 43.2249C222.361 45.7061 224.581 49.185 225.505 53.0907C226.47 56.9656 226.156 61.0461 224.61 64.7281C223.74 66.744 222.482 68.5593 221.512 70.5263C220.608 72.3544 219.914 74.4834 220.475 76.5224C220.969 78.312 222.415 79.9035 224.234 80.3895C225.932 80.8343 227.723 80.1041 228.624 78.5999C229.532 77.1678 229.555 75.2933 228.189 74.1363C226.789 72.9304 224.674 73.0872 223.465 74.486C223.429 74.5297 223.393 74.5734 223.357 74.6171C222.803 75.3345 222.556 76.2421 222.667 77.142C222.734 77.5971 222.037 77.7926 221.97 77.3349C221.589 75.1159 223.081 73.0101 225.302 72.6321C227.023 72.339 228.739 73.1721 229.573 74.7045C230.396 76.2498 229.951 78.114 228.907 79.4356C227.805 80.8729 225.966 81.5337 224.201 81.1275C222.299 80.6878 220.745 79.1785 220.012 77.4043C219.198 75.4296 219.572 73.2235 220.364 71.3079C221.221 69.2355 222.497 67.3765 223.503 65.3812C224.417 63.5762 224.996 61.6221 225.217 59.6139C225.659 55.5771 224.743 51.5094 222.613 48.0537C220.441 44.6519 217.127 42.1321 213.262 40.9519C209.428 39.7203 205.288 39.8309 201.524 41.2631C197.85 42.7081 194.304 45.8604 194.345 50.0952C194.363 51.9028 195.035 53.7464 196.422 54.9549C198.079 56.3973 200.384 56.5208 202.466 56.2945C204.56 56.0682 206.595 55.4563 208.7 55.2994C210.53 55.1631 212.506 55.3046 214.14 56.2148C214.901 56.639 215.55 57.2407 216.028 57.9658C216.293 58.3515 215.668 58.714 215.411 58.3283Z" fill="#262626"/>
<path d="M212.783 87.795L211.762 87.0854L209.86 85.7663C209.093 85.2366 208.046 85.4269 207.514 86.1906L201.315 95.105L195.544 103.405L195.029 104.145V115.179H195.075C195.477 115.14 195.85 114.958 196.128 114.664C196.187 114.603 196.241 114.536 196.29 114.466L198.086 111.88L202.524 105.495L207.125 98.8822L207.563 98.2522L213.203 90.14C213.234 90.0963 213.262 90.0526 213.288 90.0063C213.313 89.9626 213.337 89.9163 213.357 89.87C213.692 89.1321 213.45 88.2578 212.783 87.795Z" fill="#FDBC01"/>
<path d="M212.801 84.2672C212.619 84.149 212.428 84.0436 212.23 83.9536C210.419 83.123 208.273 83.6784 207.089 85.2803L201.233 93.2151C200.744 94.0019 200.983 95.0356 201.771 95.5267C201.778 95.5318 201.786 95.537 201.794 95.5395L207.125 98.8821L207.192 98.9233L207.46 99.0904C208.257 99.5712 209.292 99.3192 209.778 98.5247L213.913 90.3225L213.983 90.1862L213.985 90.1837L214.24 89.672C215.202 87.7667 214.585 85.4449 212.801 84.2672Z" fill="#262626"/>
<path d="M176.946 116.97V136.329C176.948 137.26 177.699 138.011 178.631 138.013H182.189C183.121 138.011 183.872 137.26 183.875 136.329V116.97H176.946Z" fill="#FDBC01"/>
<path d="M203.459 114.664H195.544V98.9386C195.541 97.6145 194.468 96.5422 193.143 96.5397H163.792C162.467 96.5397 161.391 97.6145 161.389 98.9386V115.086C161.391 116.41 162.467 117.485 163.792 117.485H203.459C203.5 117.485 203.538 117.482 203.577 117.48C203.613 117.477 203.649 117.469 203.685 117.464C204.225 117.354 204.616 116.881 204.616 116.328V115.821C204.616 115.184 204.099 114.664 203.459 114.664ZM203.459 116.971H163.792C162.75 116.971 161.906 116.127 161.903 115.086V98.9386C161.906 97.8973 162.75 97.0539 163.792 97.0539H193.143C194.185 97.0565 195.027 97.8973 195.029 98.9386V115.179H203.459C203.814 115.179 204.102 115.467 204.102 115.821V116.328C204.102 116.683 203.814 116.971 203.459 116.971Z" fill="#262626"/>
<path d="M178.469 108.99C179.562 108.99 180.448 108.104 180.448 107.012C180.448 105.92 179.562 105.035 178.469 105.035C177.376 105.035 176.49 105.92 176.49 107.012C176.49 108.104 177.376 108.99 178.469 108.99Z" fill="#FDBC01"/>
<path d="M51.9762 73.9075C59.5818 73.9075 65.7473 67.7464 65.7473 60.1463C65.7473 52.5461 59.5818 46.385 51.9762 46.385C44.3706 46.385 38.2051 52.5461 38.2051 60.1463C38.2051 67.7464 44.3706 73.9075 51.9762 73.9075Z" fill="#FDBC01"/>
<path d="M49.2899 111.913H45.4921C44.5683 111.913 43.8196 112.661 43.8196 113.584V145.213C43.8196 146.136 44.5683 146.884 45.4921 146.884H49.2899C50.2137 146.884 50.9624 146.136 50.9624 145.213V113.584C50.9624 112.661 50.2137 111.913 49.2899 111.913Z" fill="#262626"/>
<path d="M57.3153 111.913H53.5175C52.5937 111.913 51.845 112.661 51.845 113.584V145.213C51.845 146.136 52.5937 146.884 53.5175 146.884H57.3153C58.2391 146.884 58.9878 146.136 58.9878 145.213V113.584C58.9878 112.661 58.2391 111.913 57.3153 111.913Z" fill="#262626"/>
<path d="M60.0659 81.1222C56.5408 76.5711 49.9897 75.7355 45.4354 79.2581C42.8855 81.2302 41.3905 84.2694 41.3879 87.4912V115.502C41.3879 115.587 41.3931 115.672 41.4085 115.757C41.5346 116.644 42.2937 117.302 43.1891 117.302H60.4468C61.44 117.299 62.2453 116.495 62.2479 115.502V87.4912C62.2531 85.1848 61.4837 82.9426 60.0659 81.1222Z" fill="#262626"/>
<path d="M63.6038 66.2298L63.5884 65.7156C64.5456 65.6899 65.3895 65.6282 66.0251 65.1654C66.3879 64.8851 66.6117 64.4608 66.6375 64.0006C66.6606 63.7203 66.55 63.4452 66.3416 63.2575C65.9196 62.9027 65.2429 63.0184 64.7488 63.2446L64.3243 63.4401L65.1399 57.4774L65.6494 57.5468L64.9547 62.6198C65.6262 62.4218 66.2464 62.5067 66.6735 62.8667C67.0054 63.1546 67.183 63.584 67.1521 64.0212C67.1212 64.6383 66.8202 65.2091 66.3287 65.5819C65.5156 66.1758 64.4555 66.2041 63.6038 66.2298Z" fill="#262626"/>
<path d="M62.194 57.9815H59.4229V58.4958H62.194V57.9815Z" fill="#262626"/>
<path d="M47.9366 81.5184C47.6355 81.1918 47.2187 80.9964 46.7736 80.981L43.7811 80.8575L42.9808 80.8241C42.0571 80.7855 41.28 81.5029 41.2389 82.4234L40.7654 93.8191L39.9292 114.026C39.8931 114.901 40.539 115.654 41.4087 115.757C41.4499 115.762 41.4885 115.765 41.5296 115.767L43.8197 115.862L45.3249 115.924C45.4459 115.929 45.5668 115.921 45.6852 115.901C45.9991 115.844 46.2924 115.7 46.5266 115.484C46.8533 115.184 47.0489 114.767 47.0643 114.322L47.1647 111.913L47.9031 94.0917L48.3766 82.7191C48.3972 82.2769 48.2376 81.8449 47.9366 81.5184Z" fill="#FDBC01"/>
<path d="M45.7443 79.0243C45.4252 78.9575 45.0985 78.9241 44.7717 78.9241C42.1446 78.9266 40.014 81.0556 40.0115 83.6809V92.4231C40.014 92.9862 40.2971 93.5081 40.7654 93.8192C40.9532 93.9427 41.1668 94.0275 41.3881 94.0661C41.4859 94.0841 41.5836 94.0944 41.684 94.0944H47.8594C47.8748 94.0944 47.8877 94.0944 47.9031 94.0918C48.8088 94.0686 49.5319 93.3281 49.5319 92.4231V83.6809C49.5293 81.4285 47.9494 79.4872 45.7443 79.0243Z" fill="#262626"/>
<path d="M78.7261 103.922C77.8924 103.492 77.491 102.523 77.7741 101.631L79.2382 96.9743L78.811 96.6195L67.5744 87.3296L60.0661 81.1227L59.1527 80.3667C58.4425 79.7779 57.3876 79.8782 56.7983 80.5878L54.377 83.5139C53.7878 84.2236 53.8856 85.2752 54.5932 85.864C54.5958 85.864 54.5958 85.8666 54.5983 85.8666L62.2481 92.1918L63.1178 92.9092L78.986 106.028C79.5907 106.529 80.4629 106.542 81.083 106.058C81.1654 105.994 81.2426 105.92 81.3095 105.84C81.3198 105.83 81.3301 105.819 81.3404 105.806L81.6466 105.436L78.7261 103.922Z" fill="#FDBC01"/>
<path d="M67.0339 85.5449L60.2641 80.009C58.2288 78.3455 55.2312 78.6437 53.5638 80.675C51.8965 82.7063 52.1975 85.7043 54.2302 87.3705L61 92.9063C61.615 93.4103 62.5001 93.4103 63.1151 92.9089C63.2052 92.8395 63.2849 92.7598 63.3544 92.6724L67.2655 87.8976C67.4044 87.7305 67.5073 87.5376 67.5717 87.3293C67.7724 86.6814 67.5588 85.9769 67.0339 85.5449Z" fill="#262626"/>
<path d="M48.5231 62.4759C47.8052 61.2777 47.2443 59.9586 47.5119 58.5419C47.7486 57.2743 48.6621 56.2895 49.9743 56.1583C50.7643 56.0812 51.549 56.292 52.321 56.4283C52.954 56.5389 53.5972 56.58 54.2379 56.5517C55.5296 56.4926 56.793 56.1738 57.956 55.6107C60.3438 54.4948 62.1321 52.4018 62.8603 49.8691C63.6425 47.0227 63.061 43.7881 61.2032 41.4715L61.8491 41.3018L61.0103 44.0581C60.9511 44.2638 60.7349 44.3847 60.5265 44.323C60.4982 44.3152 60.4699 44.3024 60.4416 44.287C57.3642 42.3457 53.6255 41.7466 50.0978 42.6337C49.1123 42.8805 48.1577 43.2482 47.2597 43.7239C46.8223 43.9578 46.4312 43.2919 46.8712 43.0579C50.2805 41.2812 54.2714 40.9752 57.9123 42.212C58.9389 42.5617 59.9193 43.0348 60.8327 43.6184L60.2666 43.8498L61.1055 41.0935C61.1646 40.8878 61.3808 40.7695 61.5866 40.8286C61.6484 40.8466 61.705 40.8801 61.7487 40.9238C63.4959 43.1376 64.2626 45.9685 63.869 48.7609C63.4881 51.5147 61.952 53.9779 59.6414 55.5284C57.3359 57.084 54.5055 57.6522 51.7806 57.1071C51.0241 56.9631 50.1673 56.7549 49.4263 57.0711C48.8808 57.3334 48.4819 57.8245 48.3378 58.4107C47.9184 59.8326 48.6338 61.1825 49.3619 62.3653L48.5231 62.4759Z" fill="#262626"/>
<path d="M98.7601 90.9651L86.0311 83.6036C84.8629 82.9274 83.3653 83.3285 82.6912 84.4959C82.6011 84.6501 82.5291 84.8147 82.4751 84.9844L78.811 96.6192L77.2826 101.476C76.9249 102.608 77.4344 103.832 78.4894 104.377L81.3095 105.84L90.5108 110.609C90.8582 110.789 91.2467 110.884 91.6378 110.884C91.9286 110.884 92.2142 110.833 92.4869 110.733L92.5049 110.725C93.1559 110.476 93.6705 109.964 93.9201 109.316L99.8176 93.9529C100.252 92.8318 99.8048 91.5642 98.7601 90.9651ZM99.3364 93.7703L93.439 109.133C93.2408 109.645 92.8343 110.049 92.3197 110.244L92.3068 110.249C91.7973 110.437 91.2312 110.404 90.7475 110.154L81.6465 105.436L78.7261 103.922C77.8924 103.492 77.491 102.523 77.774 101.631L79.2381 96.9741L82.9639 85.1387C83.2881 84.1205 84.374 83.5599 85.3929 83.8813C85.5242 83.9225 85.6502 83.9791 85.7712 84.0485L98.5002 91.4099C99.3262 91.883 99.6812 92.8858 99.3364 93.7703Z" fill="#262626"/>
<path d="M73.9066 95.8892C73.778 95.8892 73.6519 95.8558 73.5387 95.794L65.0475 91.1658C64.6744 90.9601 64.5381 90.4922 64.7439 90.1193C64.9472 89.7491 65.4155 89.6102 65.7886 89.8133L74.2797 94.4416C74.6528 94.6447 74.7918 95.1152 74.5885 95.4881C74.4496 95.7349 74.1897 95.8892 73.9066 95.8892Z" fill="#FDBC01"/>
<path d="M92.9474 99.2318C92.8188 99.2318 92.6927 99.1984 92.5795 99.1366L84.0883 94.5084C83.7152 94.3027 83.5788 93.8347 83.7847 93.4619C83.9879 93.0917 84.4562 92.9528 84.8293 93.1559L93.3205 97.7842C93.6936 97.9873 93.8325 98.4578 93.6293 98.8307C93.4903 99.0775 93.2304 99.2318 92.9474 99.2318Z" fill="#FDBC01"/>
<path d="M91.6608 102.831C91.5322 102.831 91.4061 102.798 91.2929 102.736L82.8017 98.1079C82.4286 97.9022 82.2922 97.4342 82.4981 97.0614C82.7013 96.6911 83.1696 96.5523 83.5427 96.7554L92.0339 101.384C92.407 101.587 92.546 102.057 92.3427 102.43C92.2037 102.677 91.9439 102.831 91.6608 102.831Z" fill="#FDBC01"/>
<path d="M132.038 30.199C131.734 29.4791 131.032 29.0086 130.249 29.0034H94.5531C93.4853 29.0034 92.6182 29.8699 92.6182 30.937V76.0621C92.6182 77.1292 93.4853 77.9957 94.5531 77.9957H130.249C131.317 77.9931 132.182 77.1292 132.184 76.0621V30.937C132.184 30.685 132.136 30.433 132.038 30.199ZM131.755 76.0621C131.755 76.8926 131.081 77.5663 130.249 77.5663H94.5531C93.722 77.5663 93.0479 76.8926 93.0479 76.0621V30.937C93.0479 30.1065 93.722 29.4328 94.5531 29.4328H130.249C130.864 29.4354 131.418 29.8082 131.647 30.379C131.667 30.4356 131.688 30.4922 131.703 30.5487C131.737 30.6747 131.755 30.8059 131.755 30.937V76.0621Z" fill="#262626"/>
<path d="M124.586 39.6587H113.833C113.357 39.6587 112.974 39.2731 112.974 38.7999C112.974 38.3268 113.36 37.9412 113.833 37.9412H124.586C125.062 37.9412 125.445 38.3268 125.445 38.7999C125.445 39.2731 125.062 39.6587 124.586 39.6587Z" fill="#262626"/>
<path d="M124.586 44.1712H113.833C113.357 44.1712 112.974 43.7856 112.974 43.3125C112.974 42.8394 113.36 42.4537 113.833 42.4537H124.586C125.062 42.4537 125.445 42.8394 125.445 43.3125C125.445 43.7856 125.062 44.1712 124.586 44.1712Z" fill="#262626"/>
<path d="M108.319 46.7403H100.461C99.9254 46.7403 99.4932 46.3083 99.4932 45.7735V36.5068C99.4932 35.9719 99.9254 35.54 100.461 35.54H108.319C108.854 35.54 109.286 35.9719 109.286 36.5068V45.7735C109.284 46.3083 108.851 46.7403 108.319 46.7403Z" fill="#FDBC01"/>
<path d="M124.511 53.4096H100.211C99.7351 53.4096 99.3491 53.0265 99.3491 52.5534C99.3491 52.0777 99.7325 51.692 100.206 51.692C100.209 51.692 100.209 51.692 100.211 51.692H124.511C124.987 51.692 125.371 52.0777 125.368 52.5534C125.368 53.0265 124.985 53.4096 124.511 53.4096Z" fill="#CCCCCC"/>
<path d="M124.511 57.9221H100.211C99.7351 57.9221 99.3491 57.539 99.3491 57.0659C99.3491 56.5902 99.7325 56.2045 100.206 56.2045C100.209 56.2045 100.209 56.2045 100.211 56.2045H124.511C124.987 56.2045 125.371 56.5902 125.371 57.0633C125.371 57.539 124.987 57.9221 124.511 57.9221Z" fill="#CCCCCC"/>
<path d="M124.511 62.4347H100.211C99.7351 62.4347 99.3491 62.0516 99.3491 61.5785C99.3491 61.1028 99.7325 60.7172 100.206 60.7172C100.209 60.7172 100.209 60.7172 100.211 60.7172H124.511C124.987 60.7172 125.371 61.1028 125.371 61.576C125.371 62.0516 124.987 62.4347 124.511 62.4347Z" fill="#CCCCCC"/>
<path d="M124.511 66.947H100.211C99.7351 66.947 99.3491 66.5639 99.3491 66.0908C99.3491 65.6151 99.7325 65.2294 100.206 65.2294C100.209 65.2294 100.209 65.2294 100.211 65.2294H124.511C124.987 65.2294 125.371 65.6151 125.371 66.0882C125.371 66.5639 124.987 66.947 124.511 66.947Z" fill="#CCCCCC"/>
<path d="M124.511 71.4598H100.211C99.7351 71.4598 99.3491 71.0767 99.3491 70.6035C99.3491 70.1279 99.7325 69.7422 100.206 69.7422C100.209 69.7422 100.209 69.7422 100.211 69.7422H124.511C124.987 69.7422 125.371 70.1279 125.368 70.6035C125.368 71.0767 124.985 71.4598 124.511 71.4598Z" fill="#CCCCCC"/>
<path d="M131.826 1.56035L111.475 20.92L111.771 21.2311L132.123 1.87136L131.826 1.56035Z" fill="#E6E6E6"/>
<path d="M111.281 21.3928L113.864 21.3645L113.859 20.9325L111.739 20.9582L111.867 18.8447L111.437 18.8164L111.281 21.3928Z" fill="#E6E6E6"/>
<path d="M132.305 1.39111L132.148 3.96749L131.719 3.94178L131.847 1.82565L129.727 1.85136L129.722 1.42197L132.305 1.39111Z" fill="#E6E6E6"/>
<path d="M121.794 13.7563C123.1 13.7563 124.159 12.6983 124.159 11.3933C124.159 10.0883 123.1 9.03033 121.794 9.03033C120.488 9.03033 119.43 10.0883 119.43 11.3933C119.43 12.6983 120.488 13.7563 121.794 13.7563Z" fill="#E6E6E6"/>
<path d="M195.536 114.937H195.021V117.251H195.536V114.937Z" fill="#262626"/>
<path d="M163.033 27.5122H141.934C140.655 27.5096 139.621 26.476 139.618 25.1981V2.31411C139.621 1.03621 140.655 0.00257123 141.934 0H163.033C164.312 0.00257123 165.346 1.03621 165.349 2.31411V25.1981C165.349 26.476 164.312 27.5096 163.033 27.5122ZM141.934 0.514247C140.941 0.514247 140.133 1.32161 140.133 2.31411V25.1981C140.133 26.1906 140.941 26.9979 141.934 26.9979H163.033C164.026 26.9979 164.834 26.1906 164.834 25.1981V2.31411C164.834 1.32161 164.026 0.514247 163.033 0.514247H141.934Z" fill="#262626"/>
<path d="M146.362 9.10999H144.304C143.666 9.10999 143.146 8.5906 143.146 7.95293V5.89595C143.146 5.25828 143.666 4.73889 144.304 4.73889H146.362C147 4.73889 147.52 5.25828 147.52 5.89595V7.95293C147.52 8.59317 147 9.10999 146.362 9.10999Z" fill="#CCCCCC"/>
<path d="M161.407 7.86044H151.796C151.369 7.86044 151.024 7.51589 151.024 7.08907V6.76252C151.024 6.3357 151.369 5.99115 151.796 5.99115H161.407C161.834 5.99115 162.179 6.3357 162.179 6.76252V7.08907C162.179 7.51332 161.834 7.86044 161.407 7.86044Z" fill="#CCCCCC"/>
<path d="M161.407 14.0311H143.562C143.135 14.0311 142.791 13.6865 142.791 13.2597V12.9332C142.791 12.5063 143.135 12.1618 143.562 12.1618H161.407C161.834 12.1618 162.179 12.5063 162.179 12.9332V13.2597C162.179 13.684 161.834 14.0311 161.407 14.0311Z" fill="#FDBC01"/>
<path d="M161.407 18.4024H143.562C143.135 18.4024 142.791 18.0578 142.791 17.631V17.3045C142.791 16.8776 143.135 16.5331 143.562 16.5331H161.407C161.834 16.5331 162.179 16.8776 162.179 17.3045V17.631C162.179 18.0553 161.834 18.4024 161.407 18.4024Z" fill="#CCCCCC"/>
<path d="M161.407 22.7734H143.562C143.135 22.7734 142.791 22.4289 142.791 22.002V21.6755C142.791 21.2487 143.135 20.9041 143.562 20.9041H161.407C161.834 20.9041 162.179 21.2487 162.179 21.6755V22.002C162.179 22.4263 161.834 22.7734 161.407 22.7734Z" fill="#CCCCCC"/>
<path d="M160.666 60.5141H139.566C138.287 60.5115 137.253 59.4779 137.25 58.2V35.316C137.253 34.0381 138.287 33.0045 139.566 33.0019H160.666C161.944 33.0045 162.979 34.0381 162.981 35.316V58.2C162.981 59.4779 161.944 60.5115 160.666 60.5141ZM139.566 33.5161C138.573 33.5161 137.765 34.3235 137.765 35.316V58.2C137.765 59.1925 138.573 59.9999 139.566 59.9999H160.666C161.659 59.9999 162.467 59.1925 162.467 58.2V35.316C162.467 34.3235 161.659 33.5161 160.666 33.5161H139.566Z" fill="#262626"/>
<path d="M159.039 40.862H149.429C149.002 40.862 148.657 40.5174 148.657 40.0906V39.764C148.657 39.3372 149.002 38.9927 149.429 38.9927H159.039C159.467 38.9927 159.811 39.3372 159.811 39.764V40.0906C159.809 40.5148 159.464 40.862 159.039 40.862Z" fill="#CCCCCC"/>
<path d="M159.04 47.0329H141.195C140.768 47.0329 140.423 46.6884 140.423 46.2616V45.935C140.423 45.5082 140.768 45.1636 141.195 45.1636H159.04C159.467 45.1636 159.812 45.5082 159.812 45.935V46.2616C159.809 46.6858 159.464 47.0329 159.04 47.0329Z" fill="#CCCCCC"/>
<path d="M159.04 51.4038H141.195C140.768 51.4038 140.423 51.0593 140.423 50.6325V50.3059C140.423 49.8791 140.768 49.5345 141.195 49.5345H159.04C159.467 49.5345 159.812 49.8791 159.812 50.3059V50.6325C159.809 51.0567 159.464 51.4038 159.04 51.4038Z" fill="#CCCCCC"/>
<path d="M159.04 55.7749H141.195C140.768 55.7749 140.423 55.4303 140.423 55.0035V54.6769C140.423 54.2501 140.768 53.9056 141.195 53.9056H159.04C159.467 53.9056 159.812 54.2501 159.812 54.6769V55.0035C159.809 55.4277 159.464 55.7749 159.04 55.7749Z" fill="#CCCCCC"/>
<path d="M145.227 39.6868C145.227 39.6817 145.227 39.674 145.227 39.6688C145.227 38.3909 144.19 37.3547 142.912 37.3547V39.6868H145.227Z" fill="#FDBC01"/>
<path d="M142.654 39.9442V37.6121C141.375 37.6121 140.338 38.6483 140.338 39.9262C140.338 41.2041 141.375 42.2403 142.654 42.2403C143.928 42.2403 144.962 41.2144 144.97 39.9442H142.654Z" fill="#CCCCCC"/>
</g>
<defs>
<clipPath id="clip0_1_1288">
<rect width="230" height="147" fill="white"/>
</clipPath>
</defs>
</svg>
