<svg width="224" height="173" viewBox="0 0 224 173" fill="none" xmlns="http://www.w3.org/2000/svg">
<g clip-path="url(#clip0_1_1186)">
<path d="M162.351 112.607L133.348 97.6459C132.438 97.1762 132.08 96.0561 132.55 95.1431L134.343 91.6609C134.812 90.7505 135.932 90.3922 136.844 90.862L165.847 105.823C166.757 106.293 167.115 107.413 166.646 108.326L164.853 111.808C164.627 112.246 164.237 112.578 163.768 112.727C163.585 112.785 163.391 112.817 163.2 112.817C162.903 112.814 162.611 112.743 162.351 112.607Z" fill="#FDBC01"/>
<path d="M153.508 98.6124C153.969 98.432 154.486 98.4452 154.937 98.6496L164.442 103.907C166.601 105.102 167.447 107.78 166.365 109.999L166.245 109.94L166.365 109.999C165.336 112.111 162.887 113.12 160.667 112.345L150.359 108.741C149.42 108.327 148.996 107.23 149.409 106.291C149.409 106.291 149.409 106.291 149.409 106.288L152.473 99.5918C152.526 99.4697 152.593 99.3556 152.669 99.2494C152.887 98.9628 153.176 98.7398 153.508 98.6124Z" fill="#262626"/>
<path d="M175.376 97.0062C183.216 97.0062 189.572 90.6464 189.572 82.8012C189.572 74.956 183.216 68.5962 175.376 68.5962C167.535 68.5962 161.179 74.956 161.179 82.8012C161.179 90.6464 167.535 97.0062 175.376 97.0062Z" fill="#FDBC01"/>
<path d="M173.635 171.142V138.494C173.635 137.469 174.468 136.636 175.492 136.636H179.408C180.431 136.636 181.264 137.469 181.264 138.494V171.142C181.264 172.167 180.431 173 179.408 173H175.492C174.466 173 173.635 172.169 173.635 171.142Z" fill="#FDBC01"/>
<path d="M165.147 171.142V138.494C165.147 137.469 165.98 136.636 167.004 136.636H170.919C171.943 136.636 172.776 137.469 172.776 138.494V171.142C172.776 172.167 171.943 173 170.919 173H167.004C165.977 173 165.147 172.169 165.147 171.142Z" fill="#FDBC01"/>
<path d="M175.675 88.0647L175.691 87.5339C174.704 87.5074 173.834 87.4437 173.179 86.9659C172.805 86.6766 172.574 86.2387 172.548 85.7636C172.524 85.4743 172.638 85.1903 172.853 84.9965C173.288 84.6303 173.985 84.7497 174.495 84.9833L174.932 85.185L174.092 79.03L173.566 79.1017L174.283 84.3383C173.59 84.134 172.951 84.2215 172.511 84.5931C172.168 84.8904 171.985 85.3336 172.017 85.7848C172.049 86.4218 172.359 87.011 172.866 87.3959C173.707 88.0117 174.797 88.0409 175.675 88.0647Z" fill="#262626"/>
<path d="M170.967 79.5525H168.11V80.0833H170.967V79.5525Z" fill="#262626"/>
<path d="M179.986 79.5525H177.129V80.0833H179.986V79.5525Z" fill="#262626"/>
<path d="M188.962 143.897L184.052 111.62C183.898 110.606 184.596 109.658 185.609 109.505L189.479 108.915C190.493 108.761 191.439 109.459 191.593 110.473L196.503 142.75C196.657 143.764 195.959 144.712 194.946 144.866L191.076 145.455C190.063 145.609 189.116 144.914 188.962 143.902C188.962 143.897 188.962 143.897 188.962 143.897Z" fill="#FDBC01"/>
<path d="M185.166 123.179C184.75 122.911 184.455 122.486 184.355 121.998L183.023 111.214C182.721 108.764 184.389 106.505 186.819 106.078L186.843 106.208L186.819 106.078C189.134 105.669 191.387 107.06 192.063 109.311L195.204 119.774C195.418 120.777 194.782 121.764 193.779 121.982C193.779 121.982 193.779 121.982 193.777 121.982L186.561 123.434C186.431 123.463 186.299 123.476 186.169 123.476C185.813 123.476 185.466 123.373 185.166 123.179Z" fill="#262626"/>
<path d="M185.548 146.509H147.611C146.367 146.509 145.356 145.498 145.356 144.253C145.356 143.9 145.438 143.555 145.598 143.239L163.94 106.742C167.068 100.518 174.643 98.0128 180.864 101.142C185.118 103.284 187.805 107.642 187.805 112.409V144.253C187.8 145.498 186.792 146.507 185.548 146.509Z" fill="#262626"/>
<path d="M175.879 71.0811C172.972 71.7313 170.521 73.6264 167.601 74.2156C166.269 74.4837 164.802 74.4731 163.579 73.8175C162.675 73.3265 161.98 72.517 161.635 71.5455C160.937 69.5284 161.314 67.2936 162.635 65.6162C164.274 63.607 166.89 62.6807 169.399 62.4206C174.42 61.8977 179.577 63.5539 183.665 66.439C187.885 69.4169 191.121 73.8892 192.209 78.9772C192.789 81.6977 192.731 84.5907 191.742 87.2103C190.789 89.7158 188.911 91.7622 186.498 92.9274C185.922 93.206 185.32 93.429 184.702 93.5962C184.492 93.6626 184.375 93.8855 184.442 94.0952C184.505 94.2942 184.71 94.411 184.914 94.3632C187.628 93.6227 189.97 91.8949 191.484 89.5221C193.039 87.0325 193.561 83.9882 193.32 81.0925C192.856 75.4923 189.779 70.3459 185.476 66.8212C181.344 63.4371 175.996 61.3775 170.619 61.5394C167.924 61.6217 165.123 62.3065 163.027 64.0847C161.192 65.6374 160.261 68.0102 160.55 70.399C160.669 71.4978 161.107 72.5409 161.807 73.3955C162.661 74.3616 163.847 74.9747 165.131 75.1127C168.309 75.5268 171.067 73.7246 173.877 72.5647C174.593 72.2622 175.335 72.0233 176.094 71.8481C176.59 71.7393 176.378 70.9696 175.879 71.0811Z" fill="#262626"/>
<path d="M183.864 65.4537C182.723 61.1779 185.702 56.7295 189.747 55.3945C192.071 54.6699 194.561 54.6991 196.866 55.4741C199.113 56.2359 201.132 57.555 202.734 59.3067C206.28 63.0836 207.853 68.1795 208.588 73.2065C209.347 78.3954 208.92 84.0779 211.572 88.7943C212.673 90.7504 214.305 92.4597 216.416 93.3037C218.384 94.0893 220.742 94.092 222.628 93.0728C223.082 92.8233 223.501 92.5181 223.878 92.1598C224.252 91.8068 223.687 91.2441 223.315 91.5971C221.737 93.0887 219.382 93.37 217.352 92.7835C215.137 92.1465 213.435 90.4425 212.312 88.4838C211.015 86.2171 210.474 83.6267 210.18 81.0548C209.859 78.2494 209.734 75.428 209.304 72.6332C208.53 67.593 206.853 62.5315 203.299 58.7493C201.673 56.9817 199.646 55.6334 197.392 54.8159C195.068 53.9825 192.551 53.8551 190.155 54.4496C187.978 55.015 186.06 56.3049 184.715 58.1097C183.41 59.8216 182.747 61.9396 182.84 64.0921C182.874 64.6256 182.959 65.1565 183.1 65.6714C183.166 65.881 183.389 65.9978 183.598 65.9315C183.795 65.8651 183.914 65.6581 183.864 65.4537Z" fill="#262626"/>
<path d="M27.6558 101.654H4.50939C2.02127 101.651 0.00265258 99.6314 0 97.1418V4.51205C0.00265258 2.02246 2.02127 0.00265415 4.50939 0H67.2907L78.7817 10.2662V28.9302H78.2512V10.5025L67.0891 0.53083H4.50939C2.31305 0.533484 0.533169 2.31442 0.530517 4.51205V97.1418C0.533169 99.3394 2.31305 101.12 4.50939 101.123H27.6558V101.654Z" fill="#CCCCCC"/>
<path d="M78.5163 10.6166H71.3544C68.8662 10.6139 66.8476 8.59413 66.845 6.10454V0.265415C66.845 0.119437 66.9643 0 67.1102 0C67.2561 0 67.3755 0.119437 67.3755 0.265415V6.10454C67.3781 8.30217 69.158 10.0831 71.3544 10.0858H78.5163C78.6622 10.0858 78.7816 10.2052 78.7816 10.3512C78.7816 10.4972 78.6622 10.6166 78.5163 10.6166Z" fill="#CCCCCC"/>
<path d="M69.641 24.02H9.16211C7.98966 24.02 7.04004 24.9702 7.04004 26.1433C7.04004 27.3165 7.98966 28.2667 9.16211 28.2667H69.641C70.8134 28.2667 71.7631 27.3165 71.7631 26.1433C71.7631 24.9702 70.8134 24.02 69.641 24.02Z" fill="#E6E6E6"/>
<path d="M39.1363 14.9958H9.16211C7.98966 14.9958 7.04004 15.946 7.04004 17.1192C7.04004 18.2923 7.98966 19.2425 9.16211 19.2425H39.1363C40.3087 19.2425 41.2584 18.2923 41.2584 17.1192C41.2584 15.946 40.3087 14.9958 39.1363 14.9958Z" fill="#E6E6E6"/>
<path d="M9.16211 41.8027C7.98966 41.8027 7.04004 42.7529 7.04004 43.9261C7.04004 45.0992 7.98966 46.0494 9.16211 46.0494H28.1175V41.8027H9.16211Z" fill="#E6E6E6"/>
<path d="M9.16211 32.7788C7.98966 32.7788 7.04004 33.729 7.04004 34.9021C7.04004 36.0753 7.98966 37.0254 9.16211 37.0254H28.1175V32.7788H9.16211Z" fill="#E6E6E6"/>
<path d="M28.2501 86.7906H11.263C8.84649 86.7879 6.88888 84.8292 6.88623 82.4112V60.1164C6.88888 57.6985 8.84649 55.7397 11.263 55.7371H28.2501V86.7906Z" fill="#E6E6E6"/>
<path d="M55.6407 130.186H32.4943C30.0061 130.183 27.9875 128.163 27.9849 125.674V33.044C27.9875 30.5544 30.0061 28.5346 32.4943 28.532H95.2756L106.767 38.7982V56.4005H106.236V39.0344L95.074 29.0628H32.4943C30.2979 29.0655 28.518 30.8464 28.5154 33.044V125.674C28.518 127.871 30.2979 129.652 32.4943 129.655H55.6407V130.186Z" fill="#CCCCCC"/>
<path d="M106.501 39.1486H99.3392C96.8511 39.1459 94.8325 37.1261 94.8298 34.6365V28.7974C94.8298 28.6514 94.9492 28.532 95.0951 28.532C95.241 28.532 95.3604 28.6514 95.3604 28.7974V34.6365C95.363 36.8342 97.1429 38.6151 99.3392 38.6177H106.501C106.647 38.6177 106.766 38.7372 106.766 38.8832C106.766 39.0291 106.647 39.1486 106.501 39.1486Z" fill="#CCCCCC"/>
<path d="M97.6256 52.5522H37.1467C35.9743 52.5522 35.0247 53.5024 35.0247 54.6756C35.0247 55.8487 35.9743 56.7989 37.1467 56.7989H97.6256C98.7981 56.7989 99.7477 55.8487 99.7477 54.6756C99.7477 53.5024 98.7981 52.5522 97.6256 52.5522Z" fill="#E6E6E6"/>
<path d="M67.1209 43.5281H37.1467C35.9743 43.5281 35.0247 44.4783 35.0247 45.6514C35.0247 46.8245 35.9743 47.7747 37.1467 47.7747H67.1209C68.2933 47.7747 69.243 46.8245 69.243 45.6514C69.243 44.4783 68.2933 43.5281 67.1209 43.5281Z" fill="#E6E6E6"/>
<path d="M97.6256 52.5522H37.1467C35.9743 52.5522 35.0247 53.5024 35.0247 54.6756C35.0247 55.8487 35.9743 56.7989 37.1467 56.7989H97.6256C98.7981 56.7989 99.7477 55.8487 99.7477 54.6756C99.7477 53.5024 98.7981 52.5522 97.6256 52.5522Z" fill="#E6E6E6"/>
<path d="M67.1209 43.5281H37.1467C35.9743 43.5281 35.0247 44.4783 35.0247 45.6514C35.0247 46.8245 35.9743 47.7747 37.1467 47.7747H67.1209C68.2933 47.7747 69.243 46.8245 69.243 45.6514C69.243 44.4783 68.2933 43.5281 67.1209 43.5281Z" fill="#E6E6E6"/>
<path d="M37.1467 70.335C35.9743 70.335 35.0247 71.2851 35.0247 72.4583C35.0247 73.6314 35.9743 74.5816 37.1467 74.5816H56.1021V70.335H37.1467Z" fill="#E6E6E6"/>
<path d="M37.1467 61.3108C35.9743 61.3108 35.0247 62.261 35.0247 63.4341C35.0247 64.6072 35.9743 65.5574 37.1467 65.5574H56.1021V61.3108H37.1467Z" fill="#E6E6E6"/>
<path d="M37.1467 70.335C35.9743 70.335 35.0247 71.2851 35.0247 72.4583C35.0247 73.6314 35.9743 74.5816 37.1467 74.5816H56.1021V70.335H37.1467Z" fill="#E6E6E6"/>
<path d="M37.1467 61.3108C35.9743 61.3108 35.0247 62.261 35.0247 63.4341C35.0247 64.6072 35.9743 65.5574 37.1467 65.5574H56.1021V61.3108H37.1467Z" fill="#E6E6E6"/>
<path d="M56.2347 115.323H39.2476C36.8311 115.32 34.8735 113.361 34.8708 110.943V88.6486C34.8735 86.2307 36.8311 84.2719 39.2476 84.2693H56.2347V115.323Z" fill="#E6E6E6"/>
<path d="M57.7307 57.3296C56.3912 58.1497 55.5715 59.6068 55.5715 61.1781V61.8416H56.102V61.1781C56.1047 59.3732 57.3169 57.794 59.0597 57.3296H57.7307ZM122.862 56.666H60.0809C57.5928 56.6687 55.5742 58.6885 55.5715 61.1781V153.808C55.5742 156.297 57.5928 158.317 60.0809 158.32H129.844C132.332 158.317 134.351 156.297 134.353 153.808V66.9323L122.862 56.666ZM133.823 153.808C133.82 156.005 132.04 157.786 129.844 157.789H60.0809C57.8846 157.786 56.1047 156.005 56.102 153.808V61.1781C56.1047 59.3732 57.3169 57.794 59.0597 57.3296C59.3939 57.242 59.7361 57.1968 60.0809 57.1968H122.661L133.823 67.1685V153.808ZM57.7307 57.3296C56.3912 58.1497 55.5715 59.6068 55.5715 61.1781V61.8416H56.102V61.1781C56.1047 59.3732 57.3169 57.794 59.0597 57.3296H57.7307Z" fill="#3F3D56"/>
<path d="M134.088 67.2826H126.926C124.438 67.2799 122.419 65.2601 122.417 62.7705V56.9314C122.417 56.7855 122.536 56.666 122.682 56.666C122.828 56.666 122.947 56.7855 122.947 56.9314V62.7705C122.95 64.9682 124.73 66.7491 126.926 66.7518H134.088C134.234 66.7518 134.353 66.8712 134.353 67.0172C134.353 67.1631 134.234 67.2826 134.088 67.2826Z" fill="#3F3D56"/>
<path d="M125.213 84.9327H64.7336C63.5612 84.9327 62.6116 83.9825 62.6116 82.8094C62.6116 81.6362 63.5612 80.686 64.7336 80.686H125.213C126.385 80.686 127.335 81.6362 127.335 82.8094C127.335 83.9825 126.385 84.9327 125.213 84.9327Z" fill="#CCCCCC"/>
<path d="M94.7078 75.9087H64.7336C63.5612 75.9087 62.6116 74.9586 62.6116 73.7854C62.6116 72.6123 63.5612 71.6621 64.7336 71.6621H94.7078C95.8803 71.6621 96.8299 72.6123 96.8299 73.7854C96.8299 74.9586 95.8803 75.9087 94.7078 75.9087Z" fill="#CCCCCC"/>
<path d="M125.213 102.715H64.7336C63.5612 102.715 62.6116 101.765 62.6116 100.592C62.6116 99.4189 63.5612 98.4688 64.7336 98.4688H125.213C126.385 98.4688 127.335 99.4189 127.335 100.592C127.335 101.765 126.385 102.715 125.213 102.715Z" fill="#CCCCCC"/>
<path d="M94.7078 93.6915H64.7336C63.5612 93.6915 62.6116 92.7413 62.6116 91.5681C62.6116 90.395 63.5612 89.4448 64.7336 89.4448H94.7078C95.8803 89.4448 96.8299 90.395 96.8299 91.5681C96.8299 92.7413 95.8803 93.6915 94.7078 93.6915Z" fill="#CCCCCC"/>
<path d="M123.069 143.457H66.8345C64.418 143.454 62.4604 141.495 62.4578 139.077V116.782C62.4604 114.364 64.418 112.406 66.8345 112.403H123.069C125.486 112.406 127.443 114.364 127.446 116.782V139.077C127.443 141.495 125.486 143.454 123.069 143.457Z" fill="#FDBC01"/>
</g>
<defs>
<clipPath id="clip0_1_1186">
<rect width="224" height="173" fill="white"/>
</clipPath>
</defs>
</svg>
