<svg width="170" height="211" viewBox="0 0 170 211" fill="none" xmlns="http://www.w3.org/2000/svg">
<g clip-path="url(#clip0_1_1462)">
<path d="M129.09 211H8.69754C6.93057 211 5.49319 209.563 5.49319 207.796L1.09036e-05 3.21764C-0.00456674 1.44176 1.43281 0.00457701 3.20436 0H123.596C125.363 0 126.801 1.43718 126.801 3.2039L127.794 40.2639L126.879 40.2868L125.885 3.21306C125.89 1.94523 124.864 0.915401 123.596 0.910824H3.20436C1.94093 0.915401 0.91554 1.94065 0.91554 3.2039L6.40871 207.782C6.40414 209.05 7.42953 210.08 8.69754 210.085H129.09C130.353 210.085 131.378 209.059 131.378 207.796L130.307 167.99L131.223 167.967L132.294 207.787C132.299 209.558 130.861 210.995 129.09 211Z" fill="#CCCCCC"/>
<path d="M129.262 95.1888L128.346 95.2134L128.818 112.782L129.733 112.758L129.262 95.1888Z" fill="#CCCCCC"/>
<path d="M118.286 192.971H18.5577C17.0471 192.971 15.8249 191.749 15.8249 190.239L11.2747 20.775C11.2701 19.2646 12.4923 18.0334 14.0075 18.0288H113.736C115.247 18.0288 116.469 19.2509 116.469 20.7613L117.293 40.2593L116.377 40.2959L115.553 20.7796C115.558 19.7726 114.748 18.9488 113.741 18.9442H113.736H14.0075C13.005 18.9442 12.1902 19.7589 12.1902 20.7613L16.7404 190.225C16.7358 191.232 17.5506 192.051 18.5577 192.056C18.5577 192.056 18.5577 192.056 18.5623 192.056H118.286C119.289 192.056 120.104 191.241 120.104 190.239L119.513 167.99L120.429 167.967L121.019 190.23C121.024 191.74 119.801 192.967 118.286 192.971Z" fill="#CCCCCC"/>
<path d="M118.512 95.6364L117.596 95.6606L118.058 113.051L118.973 113.027L118.512 95.6364Z" fill="#CCCCCC"/>
<path d="M144.823 95.6593H28.093C26.3352 95.6593 24.907 94.2404 24.8887 92.4829L23.0576 43.0237C23.0576 41.257 24.495 39.8198 26.262 39.8198H142.992C144.75 39.8198 146.178 41.2387 146.196 42.9963L148.027 92.4554C148.027 94.2221 146.59 95.6593 144.823 95.6593ZM23.9731 43.0008L25.8042 92.4554C25.8042 93.7187 26.8296 94.7439 28.093 94.7439H144.823C146.077 94.7439 147.098 93.7324 147.112 92.4783L145.281 43.0237C145.281 41.7605 144.255 40.7352 142.992 40.7352H26.262C25.0077 40.7352 23.9869 41.7467 23.9731 43.0008Z" fill="#262626"/>
<path d="M166.796 168.434H50.0657C48.3079 168.434 46.8796 167.015 46.8613 165.257L45.0303 115.798C45.0303 114.031 46.4677 112.594 48.2346 112.594H164.965C166.722 112.594 168.151 114.013 168.169 115.771L170 165.23C170 166.997 168.563 168.434 166.796 168.434ZM45.9458 115.775L47.7769 165.23C47.7769 166.493 48.8023 167.518 50.0657 167.518H166.796C168.05 167.518 169.071 166.507 169.084 165.253L167.253 115.798C167.253 114.535 166.228 113.51 164.965 113.51H48.2346C46.9803 113.51 45.9595 114.521 45.9458 115.775Z" fill="#262626"/>
<path d="M77.7606 123.35C76.1173 123.35 74.7852 124.682 74.7852 126.325C74.7852 127.968 76.1173 129.3 77.7606 129.3H137.27C138.913 129.3 140.245 127.968 140.245 126.325C140.245 124.682 138.913 123.35 137.27 123.35H77.7606Z" fill="#FDBC01"/>
<path d="M77.7606 137.539C76.1173 137.539 74.7852 138.871 74.7852 140.514C74.7852 142.157 76.1173 143.489 77.7606 143.489H137.27C138.913 143.489 140.245 142.157 140.245 140.514C140.245 138.871 138.913 137.539 137.27 137.539H77.7606Z" fill="#FDBC01"/>
<path d="M77.7606 151.728C76.1173 151.728 74.7852 153.059 74.7852 154.703C74.7852 156.346 76.1173 157.678 77.7606 157.678H137.27C138.913 157.678 140.245 156.346 140.245 154.703C140.245 153.059 138.913 151.728 137.27 151.728H77.7606Z" fill="#FDBC01"/>
<path d="M55.7877 50.5757C54.1444 50.5757 52.8123 51.9076 52.8123 53.5507C52.8123 55.1939 54.1444 56.5258 55.7877 56.5258H115.297C116.94 56.5258 118.273 55.1939 118.273 53.5507C118.273 51.9076 116.94 50.5757 115.297 50.5757H55.7877Z" fill="#FDBC01"/>
<path d="M55.7877 64.7646C54.1444 64.7646 52.8123 66.0966 52.8123 67.7397C52.8123 69.3829 54.1444 70.7148 55.7877 70.7148H115.297C116.94 70.7148 118.273 69.3829 118.273 67.7397C118.273 66.0966 116.94 64.7646 115.297 64.7646H55.7877Z" fill="#FDBC01"/>
<path d="M55.7877 78.9531C54.1444 78.9531 52.8123 80.285 52.8123 81.9282C52.8123 83.5713 54.1444 84.9033 55.7877 84.9033H115.297C116.94 84.9033 118.273 83.5713 118.273 81.9282C118.273 80.285 116.94 78.9531 115.297 78.9531H55.7877Z" fill="#FDBC01"/>
<path d="M64.2564 13.7312C66.7845 13.7312 68.834 11.682 68.834 9.15416C68.834 6.62634 66.7845 4.57715 64.2564 4.57715C61.7282 4.57715 59.6787 6.62634 59.6787 9.15416C59.6787 11.682 61.7282 13.7312 64.2564 13.7312Z" fill="#E6E6E6"/>
</g>
<defs>
<clipPath id="clip0_1_1462">
<rect width="170" height="211" fill="white"/>
</clipPath>
</defs>
</svg>
