<svg width="79" height="108" viewBox="0 0 79 108" fill="none" xmlns="http://www.w3.org/2000/svg">
<rect x="0.666667" y="0.666667" width="52" height="11.8431" rx="2" stroke="#757575" stroke-width="1.33333"/>
<rect x="0.666667" y="35.4894" width="52" height="11.8431" rx="2" stroke="#757575" stroke-width="1.33333"/>
<rect x="0.666667" y="18.0783" width="11.5402" height="11.8431" rx="2" stroke="#757575" stroke-width="1.33333"/>
<rect x="18.1381" y="18.0783" width="34.5287" height="11.8431" rx="2" stroke="#757575" stroke-width="1.33333"/>
<path opacity="0.9" d="M8.1024 72.2762V74.1194H11.1744V74.369C11.1744 76.5962 9.6576 77.6906 7.4496 77.6906C4.5312 77.6906 2.976 75.7514 2.976 72.641C2.976 69.5882 4.512 67.7066 7.3152 67.7066C9.2544 67.7066 10.5792 68.609 11.2128 70.3178L13.0944 69.5882C12.1536 67.1306 10.0992 65.7482 7.3344 65.7482C3.2832 65.7482 0.9216 68.705 0.9216 72.6794C0.9216 76.8458 3.5328 79.649 7.3152 79.649C9.1584 79.649 10.656 78.9962 11.424 77.825L11.6928 79.3994H13.1904V72.2762H8.1024ZM20.8471 69.761C19.8103 69.761 18.7159 70.2986 18.2359 71.489V69.9338H16.2391V79.3994H18.2167V74.465C18.2167 72.5834 19.0423 71.6426 20.4631 71.6426C20.9047 71.6426 21.2695 71.7578 21.6343 71.969L22.5943 70.241C22.0183 69.8954 21.4615 69.761 20.8471 69.761ZM31.5036 74.4266C31.5036 71.9498 30.1596 69.761 27.222 69.761C24.2076 69.761 22.8252 72.1802 22.8252 74.7146C22.8252 77.3066 24.246 79.5722 27.3756 79.5722C28.9308 79.5722 30.1212 79.073 31.1964 77.9018L29.814 76.7114C29.1036 77.5178 28.3164 77.7866 27.3948 77.7866C25.782 77.7866 24.8796 76.8074 24.8028 75.2906H31.446C31.4844 75.0026 31.5036 74.7146 31.5036 74.4266ZM24.8028 73.697C24.9372 72.5258 25.7052 71.4122 27.222 71.4122C28.6236 71.4122 29.5644 72.3146 29.6028 73.6586V73.697H24.8028ZM37.368 78.0554C36.12 77.8826 35.0832 77.6714 35.0832 76.9034C35.0832 76.6154 35.2176 76.4042 35.4672 76.2506C36.024 76.5002 36.6384 76.6538 37.3296 76.6538C39.384 76.6538 41.0736 75.329 41.0736 73.2746C41.0736 72.641 40.92 72.065 40.632 71.5658L41.976 70.4714L40.9392 69.2042L39.5376 70.4138C38.904 69.9914 38.1168 69.761 37.272 69.761C35.1792 69.761 33.4896 71.1626 33.4896 73.1594C33.4896 73.985 33.7776 74.7338 34.2768 75.329C33.6624 75.7898 33.336 76.385 33.336 77.1914C33.336 78.1706 33.816 78.7466 34.5072 79.1114L33.0864 80.1098C33.0672 80.2058 33.048 80.3018 33.048 80.5322C33.048 82.4522 34.6416 83.489 37.4064 83.489C39.9024 83.489 41.6688 82.6634 41.6688 80.7434C41.6688 78.5546 39.2688 78.3242 37.368 78.0554ZM37.3104 71.4122C38.4048 71.4122 39.096 72.1226 39.096 73.217C39.096 74.2538 38.4816 75.0218 37.2912 75.0218C36.1008 75.0218 35.448 74.2346 35.448 73.217C35.448 72.1418 36.1968 71.4122 37.3104 71.4122ZM37.4832 81.9722C36.2352 81.9722 35.0064 81.665 35.0064 80.6858C35.0064 80.6474 35.0064 80.5898 35.0256 80.513L35.9856 79.5722C36.312 79.6298 36.6384 79.6874 36.9456 79.7258C38.3856 79.937 39.6912 80.0522 39.6912 80.9162C39.6912 81.665 38.6928 81.9722 37.4832 81.9722ZM48.804 69.7418C47.6328 69.7418 46.5384 70.2218 45.9432 70.9898V66.017H43.9656V79.3994H45.9432V78.3434C46.596 79.1882 47.6712 79.5722 48.804 79.5722C51.4344 79.5722 52.8552 77.4986 52.8552 74.657C52.8552 71.6042 51.2232 69.7418 48.804 69.7418ZM48.3624 77.7674C46.5768 77.7674 45.7512 76.4426 45.7512 74.6762C45.7512 72.8714 46.6152 71.5274 48.3432 71.5274C50.0136 71.5274 50.8776 72.737 50.8776 74.6762C50.8776 76.5578 50.052 77.7674 48.3624 77.7674ZM61.1908 69.9338V73.7738C61.1908 75.7322 60.8836 77.8442 58.8292 77.8442C57.0628 77.8442 56.9668 76.2698 56.9668 75.3098V69.9338H54.9892V75.809C54.9892 77.9402 55.9684 79.5722 58.2724 79.5722C59.4244 79.5722 60.5188 79.1498 61.1908 78.209V79.3994H63.1684V69.9338H61.1908ZM72.4503 66.017V70.9898C71.8551 70.2218 70.7607 69.7418 69.5895 69.7418C67.1703 69.7418 65.5383 71.6042 65.5383 74.657C65.5383 77.4986 66.9591 79.5722 69.5895 79.5722C70.7223 79.5722 71.7975 79.1882 72.4503 78.3434V79.3994H74.4279V66.017H72.4503ZM70.0311 77.7674C68.3415 77.7674 67.5159 76.5578 67.5159 74.6762C67.5159 72.737 68.3799 71.5274 70.0503 71.5274C71.7783 71.5274 72.6423 72.8714 72.6423 74.6762C72.6423 76.4426 71.8167 77.7674 70.0311 77.7674Z" fill="white"/>
<path opacity="0.45" d="M1.4592 92.9688L2.832 97.7016L4.1664 93.3816H4.9344L6.3456 97.7208L7.8048 92.9688H9.0816L6.9408 99.1992H5.7504L4.5792 95.6856L3.4176 99.1992H2.2272L0.192 92.9688H1.4592ZM10.9615 92.9688L12.3343 95.4552L13.7743 92.9688H15.1087L12.8911 96.6264V99.1992H11.7583V96.6264L9.61747 92.9688H10.9615ZM17.4848 92.9688V95.532L19.9424 92.9688H21.4976L18.752 95.772L21.68 99.1992H20.2112L17.9936 96.5592L17.4848 97.0776V99.1992H16.3424V92.9688H17.4848ZM25.2061 92.844C25.6221 92.844 26.0029 92.9144 26.3485 93.0552C26.6941 93.1896 26.9917 93.3912 27.2413 93.66C27.7661 94.2232 28.0285 95.0296 28.0285 96.0792C28.0285 97.1352 27.7661 97.9512 27.2413 98.5272C26.7421 99.0648 26.0605 99.3336 25.1965 99.3336C24.3389 99.3336 23.6605 99.0584 23.1613 98.508C22.6365 97.9384 22.3741 97.1288 22.3741 96.0792C22.3741 95.0168 22.6365 94.204 23.1613 93.6408C23.6541 93.1096 24.3357 92.844 25.2061 92.844ZM26.8573 96.0984C26.8573 95.3816 26.7069 94.8312 26.4061 94.4472C26.1117 94.0568 25.7117 93.8616 25.2061 93.8616C24.7005 93.8616 24.2973 94.0568 23.9965 94.4472C23.6957 94.8312 23.5453 95.3816 23.5453 96.0984C23.5453 96.8088 23.6957 97.356 23.9965 97.74C24.2973 98.1176 24.7005 98.3064 25.2061 98.3064C25.7117 98.3064 26.1117 98.1176 26.4061 97.74C26.7069 97.356 26.8573 96.8088 26.8573 96.0984ZM30.78 92.9688L33.5256 97.3848V92.9688H34.6584V99.1992H33.5064L30.6744 94.6296V99.1992H29.5416V92.9688H30.78ZM38.074 92.9688H39.4948L41.5396 99.1992H40.3396L39.9076 97.8552H37.594L37.1524 99.1992H35.9524L38.074 92.9688ZM37.882 97.0008H39.6292L38.7652 94.3224L37.882 97.0008ZM43.0924 92.9688L44.4652 97.7016L45.7996 93.3816H46.5676L47.9788 97.7208L49.438 92.9688H50.7148L48.574 99.1992H47.3836L46.2124 95.6856L45.0508 99.1992H43.8604L41.8252 92.9688H43.0924ZM55.2635 94.6872C55.1611 94.1432 54.7771 93.8712 54.1115 93.8712C53.7851 93.8712 53.5291 93.9384 53.3435 94.0728C53.1643 94.2008 53.0747 94.3576 53.0747 94.5432C53.0747 94.7288 53.1323 94.876 53.2475 94.9848C53.3691 95.0872 53.5547 95.1832 53.8043 95.2728L55.1579 95.8008C55.6187 95.98 55.9739 96.2072 56.2235 96.4824C56.4731 96.7512 56.5979 97.0904 56.5979 97.5C56.5979 98.0632 56.3867 98.5112 55.9643 98.844C55.5419 99.1704 54.9403 99.3336 54.1595 99.3336C53.4683 99.3336 52.9083 99.164 52.4795 98.8248C51.9995 98.4536 51.7467 97.9288 51.7211 97.2504H52.8443C52.8443 97.7624 53.1099 98.0856 53.6411 98.22C53.8011 98.2648 54.0123 98.2872 54.2747 98.2872C54.5371 98.2872 54.7803 98.2232 55.0043 98.0952C55.2283 97.9608 55.3403 97.7848 55.3403 97.5672C55.3403 97.3432 55.2795 97.1736 55.1579 97.0584C55.0363 96.9368 54.8379 96.8248 54.5627 96.7224L53.3243 96.2328C52.8443 96.0472 52.4763 95.8296 52.2203 95.58C51.9643 95.3304 51.8363 94.9848 51.8363 94.5432C51.8363 94.0248 52.0379 93.6152 52.4411 93.3144C52.8507 93.0008 53.4043 92.844 54.1019 92.844C54.8059 92.844 55.3467 93.0072 55.7243 93.3336C56.1083 93.6536 56.3291 94.1048 56.3867 94.6872H55.2635ZM57.4686 92.9688H62.4606V93.948H60.531V99.1992H59.3982V93.948H57.4686V92.9688ZM64.1716 92.9688L65.5444 97.7016L66.8788 93.3816H67.6468L69.058 97.7208L70.5172 92.9688H71.794L69.6532 99.1992H68.4628L67.2916 95.6856L66.13 99.1992H64.9396L62.9044 92.9688H64.1716ZM75.4594 92.844C75.8754 92.844 76.2562 92.9144 76.6018 93.0552C76.9474 93.1896 77.245 93.3912 77.4946 93.66C78.0194 94.2232 78.2818 95.0296 78.2818 96.0792C78.2818 97.1352 78.0194 97.9512 77.4946 98.5272C76.9954 99.0648 76.3138 99.3336 75.4498 99.3336C74.5922 99.3336 73.9138 99.0584 73.4146 98.508C72.8898 97.9384 72.6274 97.1288 72.6274 96.0792C72.6274 95.0168 72.8898 94.204 73.4146 93.6408C73.9074 93.1096 74.589 92.844 75.4594 92.844ZM77.1106 96.0984C77.1106 95.3816 76.9602 94.8312 76.6594 94.4472C76.365 94.0568 75.965 93.8616 75.4594 93.8616C74.9538 93.8616 74.5506 94.0568 74.2498 94.4472C73.949 94.8312 73.7986 95.3816 73.7986 96.0984C73.7986 96.8088 73.949 97.356 74.2498 97.74C74.5506 98.1176 74.9538 98.3064 75.4594 98.3064C75.965 98.3064 76.365 98.1176 76.6594 97.74C76.9602 97.356 77.1106 96.8088 77.1106 96.0984Z" fill="white"/>
</svg>
