<svg width="164" height="48" viewBox="0 0 164 48" fill="none" xmlns="http://www.w3.org/2000/svg">
<rect x="0.666667" y="0.666667" width="52" height="11.8431" rx="2" stroke="#FDBC01" stroke-width="1.33333"/>
<rect x="0.666667" y="35.4903" width="52" height="11.8431" rx="2" stroke="#FDBC01" stroke-width="1.33333"/>
<rect x="0.666667" y="18.0784" width="11.5402" height="11.8431" rx="2" stroke="#FDBC01" stroke-width="1.33333"/>
<rect x="18.1379" y="18.0784" width="34.5287" height="11.8431" rx="2" stroke="#FDBC01" stroke-width="1.33333"/>
<path opacity="0.9" d="M75.8357 12.9768V14.82H78.9077V15.0696C78.9077 17.2968 77.3909 18.3912 75.1829 18.3912C72.2645 18.3912 70.7093 16.452 70.7093 13.3416C70.7093 10.2888 72.2453 8.40718 75.0485 8.40718C76.9877 8.40718 78.3125 9.30958 78.9461 11.0184L80.8277 10.2888C79.8869 7.83118 77.8325 6.44878 75.0677 6.44878C71.0165 6.44878 68.6549 9.40558 68.6549 13.38C68.6549 17.5464 71.2661 20.3496 75.0485 20.3496C76.8917 20.3496 78.3893 19.6968 79.1573 18.5256L79.4261 20.1H80.9237V12.9768H75.8357ZM88.5805 10.4616C87.5437 10.4616 86.4493 10.9992 85.9693 12.1896V10.6344H83.9725V20.1H85.9501V15.1656C85.9501 13.284 86.7757 12.3432 88.1965 12.3432C88.6381 12.3432 89.0029 12.4584 89.3677 12.6696L90.3277 10.9416C89.7517 10.596 89.1949 10.4616 88.5805 10.4616ZM99.2369 15.1272C99.2369 12.6504 97.8929 10.4616 94.9553 10.4616C91.9409 10.4616 90.5585 12.8808 90.5585 15.4152C90.5585 18.0072 91.9793 20.2728 95.1089 20.2728C96.6641 20.2728 97.8545 19.7736 98.9297 18.6024L97.5473 17.412C96.8369 18.2184 96.0497 18.4872 95.1281 18.4872C93.5153 18.4872 92.6129 17.508 92.5361 15.9912H99.1793C99.2177 15.7032 99.2369 15.4152 99.2369 15.1272ZM92.5361 14.3976C92.6705 13.2264 93.4385 12.1128 94.9553 12.1128C96.3569 12.1128 97.2977 13.0152 97.3361 14.3592V14.3976H92.5361ZM105.101 18.756C103.853 18.5832 102.817 18.372 102.817 17.604C102.817 17.316 102.951 17.1048 103.201 16.9512C103.757 17.2008 104.372 17.3544 105.063 17.3544C107.117 17.3544 108.807 16.0296 108.807 13.9752C108.807 13.3416 108.653 12.7656 108.365 12.2664L109.709 11.172L108.673 9.90478L107.271 11.1144C106.637 10.692 105.85 10.4616 105.005 10.4616C102.913 10.4616 101.223 11.8632 101.223 13.86C101.223 14.6856 101.511 15.4344 102.01 16.0296C101.396 16.4904 101.069 17.0856 101.069 17.892C101.069 18.8712 101.549 19.4472 102.241 19.812L100.82 20.8104C100.801 20.9064 100.781 21.0024 100.781 21.2328C100.781 23.1528 102.375 24.1896 105.14 24.1896C107.636 24.1896 109.402 23.364 109.402 21.444C109.402 19.2552 107.002 19.0248 105.101 18.756ZM105.044 12.1128C106.138 12.1128 106.829 12.8232 106.829 13.9176C106.829 14.9544 106.215 15.7224 105.025 15.7224C103.834 15.7224 103.181 14.9352 103.181 13.9176C103.181 12.8424 103.93 12.1128 105.044 12.1128ZM105.217 22.6728C103.969 22.6728 102.74 22.3656 102.74 21.3864C102.74 21.348 102.74 21.2904 102.759 21.2136L103.719 20.2728C104.045 20.3304 104.372 20.388 104.679 20.4264C106.119 20.6376 107.425 20.7528 107.425 21.6168C107.425 22.3656 106.426 22.6728 105.217 22.6728ZM116.537 10.4424C115.366 10.4424 114.272 10.9224 113.677 11.6904V6.71758H111.699V20.1H113.677V19.044C114.329 19.8888 115.405 20.2728 116.537 20.2728C119.168 20.2728 120.589 18.1992 120.589 15.3576C120.589 12.3048 118.957 10.4424 116.537 10.4424ZM116.096 18.468C114.31 18.468 113.485 17.1432 113.485 15.3768C113.485 13.572 114.349 12.228 116.077 12.228C117.747 12.228 118.611 13.4376 118.611 15.3768C118.611 17.2584 117.785 18.468 116.096 18.468ZM128.924 10.6344V14.4744C128.924 16.4328 128.617 18.5448 126.563 18.5448C124.796 18.5448 124.7 16.9704 124.7 16.0104V10.6344H122.723V16.5096C122.723 18.6408 123.702 20.2728 126.006 20.2728C127.158 20.2728 128.252 19.8504 128.924 18.9096V20.1H130.902V10.6344H128.924ZM140.184 6.71758V11.6904C139.588 10.9224 138.494 10.4424 137.323 10.4424C134.904 10.4424 133.272 12.3048 133.272 15.3576C133.272 18.1992 134.692 20.2728 137.323 20.2728C138.456 20.2728 139.531 19.8888 140.184 19.044V20.1H142.161V6.71758H140.184ZM137.764 18.468C136.075 18.468 135.249 17.2584 135.249 15.3768C135.249 13.4376 136.113 12.228 137.784 12.228C139.512 12.228 140.376 13.572 140.376 15.3768C140.376 17.1432 139.55 18.468 137.764 18.468Z" fill="black"/>
<path opacity="0.45" d="M69.1925 33.6696L70.5653 38.4024L71.8997 34.0824H72.6677L74.0789 38.4216L75.5381 33.6696H76.8149L74.6741 39.9H73.4837L72.3125 36.3864L71.1509 39.9H69.9605L67.9253 33.6696H69.1925ZM78.6948 33.6696L80.0676 36.156L81.5076 33.6696H82.842L80.6244 37.3272V39.9H79.4916V37.3272L77.3508 33.6696H78.6948ZM85.2182 33.6696V36.2328L87.6758 33.6696H89.231L86.4854 36.4728L89.4134 39.9H87.9446L85.727 37.26L85.2182 37.7784V39.9H84.0758V33.6696H85.2182ZM92.9394 33.5448C93.3554 33.5448 93.7362 33.6152 94.0818 33.756C94.4274 33.8904 94.725 34.092 94.9746 34.3608C95.4994 34.924 95.7618 35.7304 95.7618 36.78C95.7618 37.836 95.4994 38.652 94.9746 39.228C94.4754 39.7656 93.7938 40.0344 92.9298 40.0344C92.0722 40.0344 91.3938 39.7592 90.8946 39.2088C90.3698 38.6392 90.1074 37.8296 90.1074 36.78C90.1074 35.7176 90.3698 34.9048 90.8946 34.3416C91.3874 33.8104 92.069 33.5448 92.9394 33.5448ZM94.5906 36.7992C94.5906 36.0824 94.4402 35.532 94.1394 35.148C93.845 34.7576 93.445 34.5624 92.9394 34.5624C92.4338 34.5624 92.0306 34.7576 91.7298 35.148C91.429 35.532 91.2786 36.0824 91.2786 36.7992C91.2786 37.5096 91.429 38.0568 91.7298 38.4408C92.0306 38.8184 92.4338 39.0072 92.9394 39.0072C93.445 39.0072 93.845 38.8184 94.1394 38.4408C94.4402 38.0568 94.5906 37.5096 94.5906 36.7992ZM98.5133 33.6696L101.259 38.0856V33.6696H102.392V39.9H101.24L98.4077 35.3304V39.9H97.2749V33.6696H98.5133ZM105.807 33.6696H107.228L109.273 39.9H108.073L107.641 38.556H105.327L104.886 39.9H103.686L105.807 33.6696ZM105.615 37.7016H107.363L106.499 35.0232L105.615 37.7016ZM110.826 33.6696L112.199 38.4024L113.533 34.0824H114.301L115.712 38.4216L117.171 33.6696H118.448L116.307 39.9H115.117L113.946 36.3864L112.784 39.9H111.594L109.559 33.6696H110.826ZM122.997 35.388C122.894 34.844 122.51 34.572 121.845 34.572C121.518 34.572 121.262 34.6392 121.077 34.7736C120.898 34.9016 120.808 35.0584 120.808 35.244C120.808 35.4296 120.866 35.5768 120.981 35.6856C121.102 35.788 121.288 35.884 121.538 35.9736L122.891 36.5016C123.352 36.6808 123.707 36.908 123.957 37.1832C124.206 37.452 124.331 37.7912 124.331 38.2008C124.331 38.764 124.12 39.212 123.698 39.5448C123.275 39.8712 122.674 40.0344 121.893 40.0344C121.202 40.0344 120.642 39.8648 120.213 39.5256C119.733 39.1544 119.48 38.6296 119.454 37.9512H120.578C120.578 38.4632 120.843 38.7864 121.374 38.9208C121.534 38.9656 121.746 38.988 122.008 38.988C122.27 38.988 122.514 38.924 122.738 38.796C122.962 38.6616 123.074 38.4856 123.074 38.268C123.074 38.044 123.013 37.8744 122.891 37.7592C122.77 37.6376 122.571 37.5256 122.296 37.4232L121.058 36.9336C120.578 36.748 120.21 36.5304 119.954 36.2808C119.698 36.0312 119.57 35.6856 119.57 35.244C119.57 34.7256 119.771 34.316 120.174 34.0152C120.584 33.7016 121.138 33.5448 121.835 33.5448C122.539 33.5448 123.08 33.708 123.458 34.0344C123.842 34.3544 124.062 34.8056 124.12 35.388H122.997ZM125.202 33.6696H130.194V34.6488H128.264V39.9H127.132V34.6488H125.202V33.6696ZM131.905 33.6696L133.278 38.4024L134.612 34.0824H135.38L136.791 38.4216L138.251 33.6696H139.527L137.387 39.9H136.196L135.025 36.3864L133.863 39.9H132.673L130.638 33.6696H131.905ZM143.193 33.5448C143.609 33.5448 143.99 33.6152 144.335 33.756C144.681 33.8904 144.978 34.092 145.228 34.3608C145.753 34.924 146.015 35.7304 146.015 36.78C146.015 37.836 145.753 38.652 145.228 39.228C144.729 39.7656 144.047 40.0344 143.183 40.0344C142.326 40.0344 141.647 39.7592 141.148 39.2088C140.623 38.6392 140.361 37.8296 140.361 36.78C140.361 35.7176 140.623 34.9048 141.148 34.3416C141.641 33.8104 142.322 33.5448 143.193 33.5448ZM144.844 36.7992C144.844 36.0824 144.694 35.532 144.393 35.148C144.098 34.7576 143.698 34.5624 143.193 34.5624C142.687 34.5624 142.284 34.7576 141.983 35.148C141.682 35.532 141.532 36.0824 141.532 36.7992C141.532 37.5096 141.682 38.0568 141.983 38.4408C142.284 38.8184 142.687 39.0072 143.193 39.0072C143.698 39.0072 144.098 38.8184 144.393 38.4408C144.694 38.0568 144.844 37.5096 144.844 36.7992Z" fill="black"/>
</svg>
