<svg width="22" height="26" viewBox="0 0 22 26" fill="none" xmlns="http://www.w3.org/2000/svg">
<path d="M7.00008 13H15.0001M7.00008 18.3333H15.0001M17.6667 25H4.33341C3.62617 25 2.94789 24.719 2.4478 24.219C1.9477 23.7189 1.66675 23.0406 1.66675 22.3333V3.66667C1.66675 2.95942 1.9477 2.28115 2.4478 1.78105C2.94789 1.28095 3.62617 1 4.33341 1H11.7814C12.135 1.00008 12.4741 1.1406 12.7241 1.39067L19.9427 8.60933C20.1928 8.85932 20.3333 9.19841 20.3334 9.552V22.3333C20.3334 23.0406 20.0525 23.7189 19.5524 24.219C19.0523 24.719 18.374 25 17.6667 25Z" stroke="white" stroke-width="1.5" stroke-linecap="round" stroke-linejoin="round"/>
</svg>
