<svg width="24" height="26" viewBox="0 0 24 26" fill="none" xmlns="http://www.w3.org/2000/svg">
<path d="M6.66658 6.33333V17C6.66658 17.7072 6.94754 18.3855 7.44763 18.8856C7.94773 19.3857 8.62601 19.6667 9.33325 19.6667H17.3333M6.66658 6.33333V3.66667C6.66658 2.95942 6.94754 2.28115 7.44763 1.78105C7.94773 1.28095 8.62601 1 9.33325 1H15.4479C15.8015 1.00008 16.1406 1.1406 16.3906 1.39067L22.2759 7.276C22.526 7.52599 22.6665 7.86507 22.6666 8.21867V17C22.6666 17.7072 22.3856 18.3855 21.8855 18.8856C21.3854 19.3857 20.7072 19.6667 19.9999 19.6667H17.3333M6.66658 6.33333H3.99992C3.29267 6.33333 2.6144 6.61428 2.1143 7.11438C1.6142 7.61448 1.33325 8.29276 1.33325 9V22.3333C1.33325 23.0406 1.6142 23.7189 2.1143 24.219C2.6144 24.719 3.29267 25 3.99992 25H14.6666C15.3738 25 16.0521 24.719 16.5522 24.219C17.0523 23.7189 17.3333 23.0406 17.3333 22.3333V19.6667" stroke="white" stroke-width="1.5" stroke-linecap="round" stroke-linejoin="round"/>
</svg>
