<svg width="165" height="178" viewBox="0 0 165 178" fill="none" xmlns="http://www.w3.org/2000/svg">
<rect y="2.35791" width="2" height="8.14815" transform="rotate(-90 0 2.35791)" fill="#FDBC01"/>
<rect x="0.953201" y="23.822" width="2" height="8.14815" transform="rotate(-45 0.953201 23.822)" fill="#FDBC01"/>
<rect x="1.19524" y="48.0046" width="2" height="8.14815" transform="rotate(-40 1.19524 48.0046)" fill="#FDBC01"/>
<rect x="1.74304" y="71.9932" width="2" height="8.14815" transform="rotate(-30 1.74304 71.9932)" fill="#FDBC01"/>
<rect x="2.69168" y="95.949" width="2" height="8.14815" transform="rotate(-15 2.69168 95.949)" fill="#FDBC01"/>
<rect x="3.03226" y="120.287" width="2" height="8.14815" transform="rotate(-10 3.03226 120.287)" fill="#FDBC01"/>
<rect x="3.3808" y="144.656" width="2" height="8.14815" transform="rotate(-5 3.3808 144.656)" fill="#FDBC01"/>
<rect x="3.73457" y="169.055" width="2" height="8.14815" fill="#FDBC01"/>
<rect x="22.4074" y="2.35791" width="2" height="8.14815" transform="rotate(-90 22.4074 2.35791)" fill="#FDBC01"/>
<rect x="23.3606" y="23.822" width="2" height="8.14815" transform="rotate(-45 23.3606 23.822)" fill="#FDBC01"/>
<rect x="23.6026" y="48.0046" width="2" height="8.14815" transform="rotate(-40 23.6026 48.0046)" fill="#FDBC01"/>
<rect x="24.1505" y="71.9932" width="2" height="8.14815" transform="rotate(-30 24.1505 71.9932)" fill="#FDBC01"/>
<rect x="25.0991" y="95.949" width="2" height="8.14815" transform="rotate(-15 25.0991 95.949)" fill="#FDBC01"/>
<rect x="25.4397" y="120.287" width="2" height="8.14815" transform="rotate(-10 25.4397 120.287)" fill="#FDBC01"/>
<rect x="25.7882" y="144.656" width="2" height="8.14815" transform="rotate(-5 25.7882 144.656)" fill="#FDBC01"/>
<rect x="26.142" y="169.055" width="2" height="8.14815" fill="#FDBC01"/>
<rect x="44.8148" y="2.35791" width="2" height="8.14815" transform="rotate(-90 44.8148 2.35791)" fill="#FDBC01"/>
<rect x="45.768" y="23.822" width="2" height="8.14815" transform="rotate(-45 45.768 23.822)" fill="#FDBC01"/>
<rect x="46.01" y="48.0046" width="2" height="8.14815" transform="rotate(-40 46.01 48.0046)" fill="#FDBC01"/>
<rect x="46.5578" y="71.9932" width="2" height="8.14815" transform="rotate(-30 46.5578 71.9932)" fill="#FDBC01"/>
<rect x="47.5065" y="95.949" width="2" height="8.14815" transform="rotate(-15 47.5065 95.949)" fill="#FDBC01"/>
<rect x="47.8471" y="120.287" width="2" height="8.14815" transform="rotate(-10 47.8471 120.287)" fill="#FDBC01"/>
<rect x="48.1956" y="144.656" width="2" height="8.14815" transform="rotate(-5 48.1956 144.656)" fill="#FDBC01"/>
<rect x="48.5494" y="169.055" width="2" height="8.14815" fill="#FDBC01"/>
<rect x="67.2222" y="2.35791" width="2" height="8.14815" transform="rotate(-90 67.2222 2.35791)" fill="#FDBC01"/>
<rect x="68.1754" y="23.822" width="2" height="8.14815" transform="rotate(-45 68.1754 23.822)" fill="#FDBC01"/>
<rect x="68.4174" y="48.0046" width="2" height="8.14815" transform="rotate(-40 68.4174 48.0046)" fill="#FDBC01"/>
<rect x="68.9653" y="71.9932" width="2" height="8.14815" transform="rotate(-30 68.9653 71.9932)" fill="#FDBC01"/>
<rect x="69.9139" y="95.949" width="2" height="8.14815" transform="rotate(-15 69.9139 95.949)" fill="#FDBC01"/>
<rect x="70.2545" y="120.287" width="2" height="8.14815" transform="rotate(-10 70.2545 120.287)" fill="#FDBC01"/>
<rect x="70.603" y="144.656" width="2" height="8.14815" transform="rotate(-5 70.603 144.656)" fill="#FDBC01"/>
<rect x="70.9568" y="169.055" width="2" height="8.14815" fill="#FDBC01"/>
<rect x="89.6296" y="2.35791" width="2" height="8.14815" transform="rotate(-90 89.6296 2.35791)" fill="#FDBC01"/>
<rect x="90.5828" y="23.822" width="2" height="8.14815" transform="rotate(-45 90.5828 23.822)" fill="#FDBC01"/>
<rect x="90.8249" y="48.0046" width="2" height="8.14815" transform="rotate(-40 90.8249 48.0046)" fill="#FDBC01"/>
<rect x="91.3727" y="71.9932" width="2" height="8.14815" transform="rotate(-30 91.3727 71.9932)" fill="#FDBC01"/>
<rect x="92.3213" y="95.949" width="2" height="8.14815" transform="rotate(-15 92.3213 95.949)" fill="#FDBC01"/>
<rect x="92.6619" y="120.287" width="2" height="8.14815" transform="rotate(-10 92.6619 120.287)" fill="#FDBC01"/>
<rect x="93.0104" y="144.656" width="2" height="8.14815" transform="rotate(-5 93.0104 144.656)" fill="#FDBC01"/>
<rect x="93.3642" y="169.055" width="2" height="8.14815" fill="#FDBC01"/>
<rect x="112.037" y="2.35791" width="2" height="8.14815" transform="rotate(-90 112.037 2.35791)" fill="#FDBC01"/>
<rect x="112.99" y="23.822" width="2" height="8.14815" transform="rotate(-45 112.99 23.822)" fill="#FDBC01"/>
<rect x="113.232" y="48.0046" width="2" height="8.14815" transform="rotate(-40 113.232 48.0046)" fill="#FDBC01"/>
<rect x="113.78" y="71.9932" width="2" height="8.14815" transform="rotate(-30 113.78 71.9932)" fill="#FDBC01"/>
<rect x="114.729" y="95.949" width="2" height="8.14815" transform="rotate(-15 114.729 95.949)" fill="#FDBC01"/>
<rect x="115.069" y="120.287" width="2" height="8.14815" transform="rotate(-10 115.069 120.287)" fill="#FDBC01"/>
<rect x="115.418" y="144.656" width="2" height="8.14815" transform="rotate(-5 115.418 144.656)" fill="#FDBC01"/>
<rect x="115.772" y="169.055" width="2" height="8.14815" fill="#FDBC01"/>
<rect x="134.444" y="2.35791" width="2" height="8.14815" transform="rotate(-90 134.444 2.35791)" fill="#FDBC01"/>
<rect x="135.398" y="23.822" width="2" height="8.14815" transform="rotate(-45 135.398 23.822)" fill="#FDBC01"/>
<rect x="135.64" y="48.0046" width="2" height="8.14815" transform="rotate(-40 135.64 48.0046)" fill="#FDBC01"/>
<rect x="136.188" y="71.9932" width="2" height="8.14815" transform="rotate(-30 136.188 71.9932)" fill="#FDBC01"/>
<rect x="137.136" y="95.949" width="2" height="8.14815" transform="rotate(-15 137.136 95.949)" fill="#FDBC01"/>
<rect x="137.477" y="120.287" width="2" height="8.14815" transform="rotate(-10 137.477 120.287)" fill="#FDBC01"/>
<rect x="137.825" y="144.656" width="2" height="8.14815" transform="rotate(-5 137.825 144.656)" fill="#FDBC01"/>
<rect x="138.179" y="169.055" width="2" height="8.14815" fill="#FDBC01"/>
<rect x="156.852" y="2.35791" width="2" height="8.14815" transform="rotate(-90 156.852 2.35791)" fill="#FDBC01"/>
<rect x="157.805" y="23.822" width="2" height="8.14815" transform="rotate(-45 157.805 23.822)" fill="#FDBC01"/>
<rect x="158.047" y="48.0046" width="2" height="8.14815" transform="rotate(-40 158.047 48.0046)" fill="#FDBC01"/>
<rect x="158.595" y="71.9932" width="2" height="8.14815" transform="rotate(-30 158.595 71.9932)" fill="#FDBC01"/>
<rect x="159.544" y="95.949" width="2" height="8.14815" transform="rotate(-15 159.544 95.949)" fill="#FDBC01"/>
<rect x="159.884" y="120.287" width="2" height="8.14815" transform="rotate(-10 159.884 120.287)" fill="#FDBC01"/>
<rect x="160.233" y="144.656" width="2" height="8.14815" transform="rotate(-5 160.233 144.656)" fill="#FDBC01"/>
<rect x="160.586" y="169.055" width="2" height="8.14815" fill="#FDBC01"/>
</svg>
