<svg width="98" height="104" viewBox="0 0 98 104" fill="none" xmlns="http://www.w3.org/2000/svg">
<rect y="2" width="2" height="8.14815" transform="rotate(-90 0 2)" fill="#FDBC01"/>
<rect x="0.953125" y="23.4641" width="2" height="8.14815" transform="rotate(-45 0.953125 23.4641)" fill="#FDBC01"/>
<rect x="1.19531" y="47.6467" width="2" height="8.14815" transform="rotate(-40 1.19531 47.6467)" fill="#FDBC01"/>
<rect x="1.74292" y="71.6352" width="2" height="8.14815" transform="rotate(-30 1.74292 71.6352)" fill="#FDBC01"/>
<rect x="2.69165" y="95.591" width="2" height="8.14815" transform="rotate(-15 2.69165 95.591)" fill="#FDBC01"/>
<rect x="22.4075" y="2" width="2" height="8.14815" transform="rotate(-90 22.4075 2)" fill="#FDBC01"/>
<rect x="23.3606" y="23.4641" width="2" height="8.14815" transform="rotate(-45 23.3606 23.4641)" fill="#FDBC01"/>
<rect x="23.6025" y="47.6467" width="2" height="8.14815" transform="rotate(-40 23.6025 47.6467)" fill="#FDBC01"/>
<rect x="24.1504" y="71.6352" width="2" height="8.14815" transform="rotate(-30 24.1504 71.6352)" fill="#FDBC01"/>
<rect x="25.0991" y="95.591" width="2" height="8.14815" transform="rotate(-15 25.0991 95.591)" fill="#FDBC01"/>
<rect x="44.8149" y="2" width="2" height="8.14815" transform="rotate(-90 44.8149 2)" fill="#FDBC01"/>
<rect x="45.7681" y="23.4641" width="2" height="8.14815" transform="rotate(-45 45.7681 23.4641)" fill="#FDBC01"/>
<rect x="46.01" y="47.6467" width="2" height="8.14815" transform="rotate(-40 46.01 47.6467)" fill="#FDBC01"/>
<rect x="46.5579" y="71.6352" width="2" height="8.14815" transform="rotate(-30 46.5579 71.6352)" fill="#FDBC01"/>
<rect x="47.5066" y="95.591" width="2" height="8.14815" transform="rotate(-15 47.5066 95.591)" fill="#FDBC01"/>
<rect x="67.2222" y="2" width="2" height="8.14815" transform="rotate(-90 67.2222 2)" fill="#FDBC01"/>
<rect x="68.1755" y="23.4641" width="2" height="8.14815" transform="rotate(-45 68.1755 23.4641)" fill="#FDBC01"/>
<rect x="68.4175" y="47.6467" width="2" height="8.14815" transform="rotate(-40 68.4175 47.6467)" fill="#FDBC01"/>
<rect x="68.9653" y="71.6352" width="2" height="8.14815" transform="rotate(-30 68.9653 71.6352)" fill="#FDBC01"/>
<rect x="69.9138" y="95.591" width="2" height="8.14815" transform="rotate(-15 69.9138 95.591)" fill="#FDBC01"/>
<rect x="89.6296" y="2" width="2" height="8.14815" transform="rotate(-90 89.6296 2)" fill="#FDBC01"/>
<rect x="90.5828" y="23.4641" width="2" height="8.14815" transform="rotate(-45 90.5828 23.4641)" fill="#FDBC01"/>
<rect x="90.825" y="47.6467" width="2" height="8.14815" transform="rotate(-40 90.825 47.6467)" fill="#FDBC01"/>
<rect x="91.3726" y="71.6352" width="2" height="8.14815" transform="rotate(-30 91.3726 71.6352)" fill="#FDBC01"/>
<rect x="92.3213" y="95.591" width="2" height="8.14815" transform="rotate(-15 92.3213 95.591)" fill="#FDBC01"/>
</svg>
